SplineFontDB: 3.0
FontName: Minitel
FullName: Minitel
FamilyName: Minitel
Weight: Book
Copyright: 
Version: 1.0
ItalicAngle: 0
UnderlinePosition: 0
UnderlineWidth: 0
Ascent: 819
Descent: 205
sfntRevision: 0x00010000
LayerCount: 2
Layer: 0 1 "Arri+AOgA-re"  1
Layer: 1 1 "Avant"  0
XUID: [1021 94 482170558 590655]
FSType: 8
OS2Version: 1
OS2_WeightWidthSlopeOnly: 0
OS2_UseTypoMetrics: 1
CreationTime: 1414261917
ModificationTime: 1414828618
PfmFamily: 17
TTFWeight: 400
TTFWidth: 5
LineGap: 92
VLineGap: 0
Panose: 2 0 5 9 0 0 0 0 0 0
OS2TypoAscent: 0
OS2TypoAOffset: 1
OS2TypoDescent: 0
OS2TypoDOffset: 1
OS2TypoLinegap: 92
OS2WinAscent: 0
OS2WinAOffset: 1
OS2WinDescent: 0
OS2WinDOffset: 1
HheadAscent: 0
HheadAOffset: 1
HheadDescent: 0
HheadDOffset: 1
OS2SubXSize: 665
OS2SubYSize: 716
OS2SubXOff: 0
OS2SubYOff: 143
OS2SupXSize: 665
OS2SupYSize: 716
OS2SupXOff: 0
OS2SupYOff: 491
OS2StrikeYSize: 51
OS2StrikeYPos: 265
OS2Vendor: 'PfEd'
OS2CodePages: 00000001.00000000
OS2UnicodeRanges: 80000007.00000060.00000000.00000000
MarkAttachClasses: 1
DEI: 91125
ShortTable: maxp 16
  1
  0
  130
  40
  10
  0
  0
  2
  0
  1
  1
  0
  64
  0
  0
  0
EndShort
LangName: 1033 "" "" "Regular" "" "" "Version 1.0" 
GaspTable: 1 65535 2
Encoding: UnicodeBmp
UnicodeInterp: none
NameList: Adobe Glyph List
DisplaySize: -24
AntiAlias: 1
FitToEm: 1
WinInfo: 0 52 21
BeginPrivate: 0
EndPrivate
BeginChars: 65540 131

StartChar: tilde
Encoding: 126 126 3
Width: 1024
GlyphClass: 2
Flags: W
LayerCount: 2
Fore
SplineSet
256 640 m 1,0,-1
 256 512 l 1,1,-1
 384 512 l 1,2,-1
 384 640 l 1,3,-1
 256 640 l 1,0,-1
384 512 m 1,4,-1
 384 384 l 1,5,-1
 512 384 l 1,6,-1
 512 512 l 1,7,-1
 384 512 l 1,4,-1
512 384 m 1,8,-1
 512 256 l 1,9,-1
 640 256 l 1,10,-1
 640 384 l 1,11,-1
 512 384 l 1,8,-1
640 384 m 1,12,-1
 768 384 l 1,13,-1
 768 512 l 1,14,-1
 640 512 l 1,15,-1
 640 384 l 1,12,-1
256 512 m 1,16,-1
 128 512 l 1,17,-1
 128 384 l 1,18,-1
 256 384 l 1,19,-1
 256 512 l 1,16,-1
EndSplineSet
Validated: 5
EndChar

StartChar: paragraphe
Encoding: 167 167 4
Width: 1024
GlyphClass: 2
Flags: W
LayerCount: 2
Fore
SplineSet
256 896 m 1,0,-1
 256 768 l 1,1,-1
 640 768 l 1,2,-1
 640 896 l 1,3,-1
 256 896 l 1,0,-1
256 768 m 1,4,-1
 128 768 l 1,5,-1
 128 640 l 1,6,-1
 256 640 l 1,7,-1
 256 768 l 1,4,-1
256 640 m 1,8,-1
 256 512 l 1,9,-1
 640 512 l 1,10,-1
 640 640 l 1,11,-1
 256 640 l 1,8,-1
640 512 m 1,12,-1
 640 384 l 1,13,-1
 768 384 l 1,14,-1
 768 512 l 1,15,-1
 640 512 l 1,12,-1
640 384 m 1,16,-1
 256 384 l 1,17,-1
 256 256 l 1,18,-1
 640 256 l 1,19,-1
 640 384 l 1,16,-1
640 256 m 1,20,-1
 640 128 l 1,21,-1
 768 128 l 1,22,-1
 768 256 l 1,23,-1
 640 256 l 1,20,-1
640 128 m 1,24,-1
 256 128 l 1,25,-1
 256 0 l 1,26,-1
 640 0 l 1,27,-1
 640 128 l 1,24,-1
256 384 m 1,28,-1
 256 512 l 1,29,-1
 128 512 l 1,30,-1
 128 384 l 1,31,-1
 256 384 l 1,28,-1
EndSplineSet
Validated: 5
EndChar

StartChar: u trema
Encoding: 252 252 5
Width: 1024
GlyphClass: 2
Flags: W
LayerCount: 2
Fore
SplineSet
256 896 m 1,0,-1
 256 768 l 1,1,-1
 384 768 l 1,2,-1
 384 896 l 1,3,-1
 256 896 l 1,0,-1
512 896 m 1,4,-1
 512 768 l 1,5,-1
 640 768 l 1,6,-1
 640 896 l 1,7,-1
 512 896 l 1,4,-1
128 512 m 1,8,-1
 128 128 l 1,9,-1
 256 128 l 1,10,-1
 256 512 l 1,11,-1
 128 512 l 1,8,-1
256 128 m 1,12,-1
 256 0 l 1,13,-1
 512 0 l 1,14,-1
 512 128 l 1,15,-1
 256 128 l 1,12,-1
512 128 m 1,16,-1
 640 128 l 1,17,-1
 640 0 l 1,18,-1
 768 0 l 1,19,-1
 768 512 l 1,20,-1
 640 512 l 1,21,-1
 640 256 l 1,22,-1
 512 256 l 1,23,-1
 512 128 l 1,16,-1
EndSplineSet
Validated: 517
EndChar

StartChar: pound
Encoding: 163 163 6
Width: 1024
GlyphClass: 2
Flags: W
LayerCount: 2
Fore
SplineSet
512 896 m 1,0,-1
 512 768 l 1,1,-1
 640 768 l 1,2,-1
 640 896 l 1,3,-1
 512 896 l 1,0,-1
640 768 m 1,4,-1
 640 640 l 1,5,-1
 768 640 l 1,6,-1
 768 768 l 1,7,-1
 640 768 l 1,4,-1
512 768 m 1,8,-1
 384 768 l 1,9,-1
 384 512 l 1,10,-1
 256 512 l 1,11,-1
 256 384 l 1,12,-1
 384 384 l 1,13,-1
 384 256 l 1,14,-1
 512 256 l 1,15,-1
 512 384 l 1,16,-1
 640 384 l 1,17,-1
 640 512 l 1,18,-1
 512 512 l 1,19,-1
 512 768 l 1,8,-1
384 256 m 1,20,-1
 256 256 l 1,21,-1
 256 128 l 1,22,-1
 256 0 l 1,23,-1
 768 0 l 1,24,-1
 768 128 l 1,25,-1
 768 256 l 1,26,-1
 640 256 l 1,27,-1
 640 128 l 1,28,-1
 384 128 l 1,29,-1
 384 256 l 1,20,-1
EndSplineSet
Validated: 5
EndChar

StartChar: a circonflexe
Encoding: 226 226 7
Width: 1024
GlyphClass: 2
Flags: W
LayerCount: 2
Fore
SplineSet
384 896 m 1,0,-1
 384 768 l 1,1,-1
 512 768 l 1,2,-1
 512 896 l 1,3,-1
 384 896 l 1,0,-1
512 768 m 1,4,-1
 512 640 l 1,5,-1
 640 640 l 1,6,-1
 640 768 l 1,7,-1
 512 768 l 1,4,-1
640 640 m 1,8,-1
 640 512 l 1,9,-1
 512 512 l 1,10,-1
 512 384 l 1,11,-1
 640 384 l 1,12,-1
 640 256 l 1,13,-1
 512 256 l 1,14,-1
 512 128 l 1,15,-1
 640 128 l 1,16,-1
 640 0 l 1,17,-1
 768 0 l 1,18,-1
 768 640 l 1,19,-1
 640 640 l 1,8,-1
512 128 m 1,20,-1
 256 128 l 1,21,-1
 256 0 l 1,22,-1
 512 0 l 1,23,-1
 512 128 l 1,20,-1
256 128 m 1,24,-1
 256 512 l 1,25,-1
 128 512 l 1,26,-1
 128 128 l 1,27,-1
 256 128 l 1,24,-1
256 512 m 1,28,-1
 512 512 l 1,29,-1
 512 640 l 1,30,-1
 384 640 l 1,31,-1
 384 768 l 1,32,-1
 256 768 l 1,33,-1
 256 640 l 1,34,-1
 256 512 l 1,28,-1
EndSplineSet
Validated: 517
EndChar

StartChar: accolade fermante
Encoding: 125 125 8
Width: 1024
GlyphClass: 2
Flags: W
LayerCount: 2
Fore
SplineSet
384 896 m 1,0,-1
 384 768 l 1,1,-1
 512 768 l 1,2,-1
 512 512 l 1,3,-1
 640 512 l 1,4,-1
 640 896 l 1,5,-1
 512 896 l 1,6,-1
 384 896 l 1,0,-1
640 512 m 1,7,-1
 640 384 l 1,8,-1
 768 384 l 1,9,-1
 768 512 l 1,10,-1
 640 512 l 1,7,-1
640 384 m 1,11,-1
 512 384 l 1,12,-1
 512 128 l 1,13,-1
 384 128 l 1,14,-1
 384 0 l 1,15,-1
 512 0 l 1,16,-1
 640 0 l 1,17,-1
 640 384 l 1,11,-1
EndSplineSet
Validated: 517
EndChar

StartChar: a trema
Encoding: 228 228 9
Width: 1024
GlyphClass: 2
Flags: W
LayerCount: 2
Fore
SplineSet
256 896 m 1,0,-1
 256 768 l 1,1,-1
 384 768 l 1,2,-1
 384 896 l 1,3,-1
 256 896 l 1,0,-1
512 896 m 1,4,-1
 512 768 l 1,5,-1
 640 768 l 1,6,-1
 640 896 l 1,7,-1
 512 896 l 1,4,-1
256 640 m 1,8,-1
 256 512 l 1,9,-1
 512 512 l 1,10,-1
 512 640 l 1,11,-1
 256 640 l 1,8,-1
512 512 m 1,12,-1
 512 384 l 1,13,-1
 640 384 l 1,14,-1
 640 256 l 1,15,-1
 512 256 l 1,16,-1
 512 128 l 1,17,-1
 640 128 l 1,18,-1
 640 0 l 1,19,-1
 768 0 l 1,20,-1
 768 640 l 1,21,-1
 640 640 l 1,22,-1
 640 512 l 1,23,-1
 512 512 l 1,12,-1
512 128 m 1,24,-1
 256 128 l 1,25,-1
 256 0 l 1,26,-1
 512 0 l 1,27,-1
 512 128 l 1,24,-1
256 128 m 1,28,-1
 256 512 l 1,29,-1
 128 512 l 1,30,-1
 128 128 l 1,31,-1
 256 128 l 1,28,-1
EndSplineSet
Validated: 517
EndChar

StartChar: o trema
Encoding: 246 246 10
Width: 1024
GlyphClass: 2
Flags: W
LayerCount: 2
Fore
SplineSet
256 896 m 1,0,-1
 256 768 l 1,1,-1
 384 768 l 1,2,-1
 384 896 l 1,3,-1
 256 896 l 1,0,-1
512 896 m 1,4,-1
 512 768 l 1,5,-1
 640 768 l 1,6,-1
 640 896 l 1,7,-1
 512 896 l 1,4,-1
256 640 m 1,8,-1
 256 512 l 1,9,-1
 640 512 l 1,10,-1
 640 640 l 1,11,-1
 256 640 l 1,8,-1
640 512 m 1,12,-1
 640 128 l 1,13,-1
 768 128 l 1,14,-1
 768 512 l 1,15,-1
 640 512 l 1,12,-1
640 128 m 1,16,-1
 256 128 l 1,17,-1
 256 0 l 1,18,-1
 640 0 l 1,19,-1
 640 128 l 1,16,-1
256 128 m 1,20,-1
 256 512 l 1,21,-1
 128 512 l 1,22,-1
 128 128 l 1,23,-1
 256 128 l 1,20,-1
EndSplineSet
Validated: 517
EndChar

StartChar: u accent grave
Encoding: 249 249 11
Width: 1024
GlyphClass: 2
Flags: W
LayerCount: 2
Fore
SplineSet
128 896 m 1,0,-1
 128 768 l 1,1,-1
 256 768 l 1,2,-1
 256 896 l 1,3,-1
 128 896 l 1,0,-1
256 768 m 1,4,-1
 256 640 l 1,5,-1
 512 640 l 1,6,-1
 512 768 l 1,7,-1
 256 768 l 1,4,-1
128 512 m 1,8,-1
 128 128 l 1,9,-1
 256 128 l 1,10,-1
 256 512 l 1,11,-1
 128 512 l 1,8,-1
256 128 m 1,12,-1
 256 0 l 1,13,-1
 512 0 l 1,14,-1
 512 128 l 1,15,-1
 256 128 l 1,12,-1
512 128 m 1,16,-1
 640 128 l 1,17,-1
 640 512 l 1,18,-1
 512 512 l 1,19,-1
 512 128 l 1,16,-1
640 128 m 1,20,-1
 640 0 l 1,21,-1
 768 0 l 1,22,-1
 768 128 l 1,23,-1
 640 128 l 1,20,-1
EndSplineSet
Validated: 517
EndChar

StartChar: beta
Encoding: 223 223 12
Width: 1024
GlyphClass: 2
Flags: W
LayerCount: 2
Fore
SplineSet
128 896 m 1,0,-1
 128 0 l 1,1,-1
 256 0 l 1,2,-1
 256 768 l 1,3,-1
 640 768 l 1,4,-1
 640 896 l 1,5,-1
 256 896 l 1,6,-1
 128 896 l 1,0,-1
640 768 m 1,7,-1
 640 640 l 1,8,-1
 768 640 l 1,9,-1
 768 768 l 1,10,-1
 640 768 l 1,7,-1
640 640 m 1,11,-1
 384 640 l 1,12,-1
 384 512 l 1,13,-1
 640 512 l 1,14,-1
 640 640 l 1,11,-1
640 512 m 1,15,-1
 640 256 l 1,16,-1
 768 256 l 1,17,-1
 768 512 l 1,18,-1
 640 512 l 1,15,-1
640 256 m 1,19,-1
 384 256 l 1,20,-1
 384 128 l 1,21,-1
 640 128 l 1,22,-1
 640 256 l 1,19,-1
EndSplineSet
Validated: 5
EndChar

StartChar: ligature OE
Encoding: 338 338 13
Width: 1024
GlyphClass: 2
Flags: W
LayerCount: 2
Fore
SplineSet
256 896 m 1,0,-1
 256 768 l 1,1,-1
 384 768 l 1,2,-1
 384 128 l 1,3,-1
 256 128 l 1,4,-1
 256 0 l 1,5,-1
 768 0 l 1,6,-1
 768 128 l 1,7,-1
 512 128 l 1,8,-1
 512 384 l 1,9,-1
 640 384 l 1,10,-1
 640 512 l 1,11,-1
 512 512 l 1,12,-1
 512 768 l 1,13,-1
 768 768 l 1,14,-1
 768 896 l 1,15,-1
 256 896 l 1,0,-1
256 128 m 1,16,-1
 256 768 l 1,17,-1
 128 768 l 1,18,-1
 128 128 l 1,19,-1
 256 128 l 1,16,-1
EndSplineSet
Validated: 517
EndChar

StartChar: accolade ouvrante
Encoding: 123 123 14
Width: 1024
GlyphClass: 2
Flags: W
LayerCount: 2
Fore
SplineSet
256 896 m 1,0,-1
 256 512 l 1,1,-1
 384 512 l 1,2,-1
 384 768 l 1,3,-1
 512 768 l 1,4,-1
 512 896 l 1,5,-1
 384 896 l 1,6,-1
 256 896 l 1,0,-1
256 512 m 1,7,-1
 128 512 l 1,8,-1
 128 384 l 1,9,-1
 256 384 l 1,10,-1
 256 512 l 1,7,-1
256 384 m 1,11,-1
 256 0 l 1,12,-1
 384 0 l 1,13,-1
 512 0 l 1,14,-1
 512 128 l 1,15,-1
 384 128 l 1,16,-1
 384 384 l 1,17,-1
 256 384 l 1,11,-1
EndSplineSet
Validated: 517
EndChar

StartChar: fleche gauche
Encoding: 8592 8592 15
Width: 1024
GlyphClass: 2
Flags: W
LayerCount: 2
Fore
SplineSet
384 768 m 1,0,-1
 384 640 l 1,1,-1
 512 640 l 1,2,-1
 512 768 l 1,3,-1
 384 768 l 1,0,-1
384 640 m 1,4,-1
 256 640 l 1,5,-1
 256 512 l 1,6,-1
 128 512 l 1,7,-1
 128 384 l 1,8,-1
 256 384 l 1,9,-1
 256 256 l 1,10,-1
 384 256 l 1,11,-1
 384 384 l 1,12,-1
 1024 384 l 1,13,-1
 1024 512 l 1,14,-1
 384 512 l 1,15,-1
 384 640 l 1,4,-1
384 256 m 1,16,-1
 384 128 l 1,17,-1
 512 128 l 1,18,-1
 512 256 l 1,19,-1
 384 256 l 1,16,-1
EndSplineSet
Validated: 517
EndChar

StartChar: i circonflexe
Encoding: 238 238 16
Width: 1024
GlyphClass: 2
Flags: W
LayerCount: 2
Fore
SplineSet
384 896 m 1,0,-1
 384 768 l 1,1,-1
 512 768 l 1,2,-1
 512 896 l 1,3,-1
 384 896 l 1,0,-1
512 768 m 1,4,-1
 512 640 l 1,5,-1
 640 640 l 1,6,-1
 640 768 l 1,7,-1
 512 768 l 1,4,-1
384 768 m 1,8,-1
 256 768 l 1,9,-1
 256 640 l 1,10,-1
 384 640 l 1,11,-1
 384 768 l 1,8,-1
256 512 m 1,12,-1
 256 384 l 1,13,-1
 384 384 l 1,14,-1
 384 128 l 1,15,-1
 256 128 l 1,16,-1
 256 0 l 1,17,-1
 640 0 l 1,18,-1
 640 128 l 1,19,-1
 512 128 l 1,20,-1
 512 384 l 1,21,-1
 512 512 l 1,22,-1
 256 512 l 1,12,-1
EndSplineSet
Validated: 517
EndChar

StartChar: fleche droite
Encoding: 8594 8594 17
Width: 1024
GlyphClass: 2
Flags: W
LayerCount: 2
Fore
SplineSet
384 768 m 1,0,-1
 384 640 l 1,1,-1
 512 640 l 1,2,-1
 512 768 l 1,3,-1
 384 768 l 1,0,-1
512 640 m 1,4,-1
 512 512 l 1,5,-1
 0 512 l 1,6,-1
 0 384 l 1,7,-1
 512 384 l 1,8,-1
 512 256 l 1,9,-1
 640 256 l 1,10,-1
 640 384 l 1,11,-1
 768 384 l 1,12,-1
 768 512 l 1,13,-1
 640 512 l 1,14,-1
 640 640 l 1,15,-1
 512 640 l 1,4,-1
512 256 m 1,16,-1
 384 256 l 1,17,-1
 384 128 l 1,18,-1
 512 128 l 1,19,-1
 512 256 l 1,16,-1
EndSplineSet
Validated: 517
EndChar

StartChar: fleche bas
Encoding: 8595 8595 18
Width: 1024
GlyphClass: 2
Flags: W
LayerCount: 2
Fore
SplineSet
384 1024 m 1,0,-1
 384 128 l 1,1,-1
 256 128 l 1,2,-1
 256 0 l 1,3,-1
 384 0 l 1,4,-1
 384 -128 l 1,5,-1
 512 -128 l 1,6,-1
 512 0 l 1,7,-1
 640 0 l 1,8,-1
 640 128 l 1,9,-1
 512 128 l 1,10,-1
 512 1024 l 1,11,-1
 384 1024 l 1,0,-1
640 128 m 1,12,-1
 768 128 l 1,13,-1
 768 256 l 1,14,-1
 640 256 l 1,15,-1
 640 128 l 1,12,-1
256 128 m 1,16,-1
 256 256 l 1,17,-1
 128 256 l 1,18,-1
 128 128 l 1,19,-1
 256 128 l 1,16,-1
EndSplineSet
Validated: 517
EndChar

StartChar: degre
Encoding: 176 176 19
Width: 1024
GlyphClass: 2
Flags: W
LayerCount: 2
Fore
SplineSet
384 896 m 1,0,-1
 384 768 l 1,1,-1
 640 768 l 1,2,-1
 640 896 l 1,3,-1
 384 896 l 1,0,-1
640 768 m 1,4,-1
 640 640 l 1,5,-1
 768 640 l 1,6,-1
 768 768 l 1,7,-1
 640 768 l 1,4,-1
640 640 m 1,8,-1
 384 640 l 1,9,-1
 384 512 l 1,10,-1
 640 512 l 1,11,-1
 640 640 l 1,8,-1
384 640 m 1,12,-1
 384 768 l 1,13,-1
 256 768 l 1,14,-1
 256 640 l 1,15,-1
 384 640 l 1,12,-1
EndSplineSet
Validated: 5
EndChar

StartChar: plus moins
Encoding: 177 177 20
Width: 1024
GlyphClass: 2
Flags: W
LayerCount: 2
Fore
SplineSet
384 896 m 1,0,-1
 384 640 l 1,1,-1
 128 640 l 1,2,-1
 128 512 l 1,3,-1
 384 512 l 1,4,-1
 384 256 l 1,5,-1
 512 256 l 1,6,-1
 512 512 l 1,7,-1
 768 512 l 1,8,-1
 768 640 l 1,9,-1
 512 640 l 1,10,-1
 512 896 l 1,11,-1
 384 896 l 1,0,-1
128 128 m 1,12,-1
 128 0 l 1,13,-1
 768 0 l 1,14,-1
 768 128 l 1,15,-1
 128 128 l 1,12,-1
EndSplineSet
Validated: 521
EndChar

StartChar: e accent aigu
Encoding: 233 233 21
Width: 1024
GlyphClass: 2
Flags: W
LayerCount: 2
Fore
SplineSet
512 896 m 1,0,-1
 512 768 l 1,1,-1
 640 768 l 1,2,-1
 640 896 l 1,3,-1
 512 896 l 1,0,-1
512 768 m 1,4,-1
 384 768 l 1,5,-1
 384 640 l 1,6,-1
 256 640 l 1,7,-1
 256 512 l 1,8,-1
 640 512 l 1,9,-1
 640 640 l 1,10,-1
 512 640 l 1,11,-1
 512 768 l 1,4,-1
640 512 m 1,12,-1
 640 384 l 1,13,-1
 256 384 l 1,14,-1
 256 512 l 1,15,-1
 128 512 l 1,16,-1
 128 384 l 1,17,-1
 128 256 l 1,18,-1
 128 128 l 1,19,-1
 256 128 l 1,20,-1
 256 256 l 1,21,-1
 768 256 l 1,22,-1
 768 384 l 1,23,-1
 768 512 l 1,24,-1
 640 512 l 1,12,-1
256 128 m 1,25,-1
 256 0 l 1,26,-1
 640 0 l 1,27,-1
 640 128 l 1,28,-1
 256 128 l 1,25,-1
EndSplineSet
Validated: 517
EndChar

StartChar: e trema
Encoding: 235 235 22
Width: 1024
GlyphClass: 2
Flags: W
LayerCount: 2
Fore
SplineSet
256 896 m 1,0,-1
 256 768 l 1,1,-1
 384 768 l 1,2,-1
 384 896 l 1,3,-1
 256 896 l 1,0,-1
512 896 m 1,4,-1
 512 768 l 1,5,-1
 640 768 l 1,6,-1
 640 896 l 1,7,-1
 512 896 l 1,4,-1
256 640 m 1,8,-1
 256 512 l 1,9,-1
 640 512 l 1,10,-1
 640 640 l 1,11,-1
 256 640 l 1,8,-1
640 512 m 1,12,-1
 640 384 l 1,13,-1
 256 384 l 1,14,-1
 256 512 l 1,15,-1
 128 512 l 1,16,-1
 128 384 l 1,17,-1
 128 256 l 1,18,-1
 128 128 l 1,19,-1
 256 128 l 1,20,-1
 256 256 l 1,21,-1
 768 256 l 1,22,-1
 768 384 l 1,23,-1
 768 512 l 1,24,-1
 640 512 l 1,12,-1
256 128 m 1,25,-1
 256 0 l 1,26,-1
 640 0 l 1,27,-1
 640 128 l 1,28,-1
 256 128 l 1,25,-1
EndSplineSet
Validated: 517
EndChar

StartChar: i trema
Encoding: 239 239 23
Width: 1024
GlyphClass: 2
Flags: W
LayerCount: 2
Fore
SplineSet
256 896 m 1,0,-1
 256 768 l 1,1,-1
 384 768 l 1,2,-1
 384 896 l 1,3,-1
 256 896 l 1,0,-1
512 896 m 1,4,-1
 512 768 l 1,5,-1
 640 768 l 1,6,-1
 640 896 l 1,7,-1
 512 896 l 1,4,-1
256 640 m 1,8,-1
 256 512 l 1,9,-1
 384 512 l 1,10,-1
 384 128 l 1,11,-1
 256 128 l 1,12,-1
 256 0 l 1,13,-1
 640 0 l 1,14,-1
 640 128 l 1,15,-1
 512 128 l 1,16,-1
 512 640 l 1,17,-1
 384 640 l 1,18,-1
 256 640 l 1,8,-1
EndSplineSet
Validated: 521
EndChar

StartChar: c cedille
Encoding: 231 231 24
Width: 1024
GlyphClass: 2
Flags: W
LayerCount: 2
Fore
SplineSet
256 640 m 1,0,-1
 256 512 l 1,1,-1
 640 512 l 1,2,-1
 640 640 l 1,3,-1
 256 640 l 1,0,-1
256 512 m 1,4,-1
 128 512 l 1,5,-1
 128 128 l 1,6,-1
 256 128 l 1,7,-1
 256 512 l 1,4,-1
256 128 m 1,8,-1
 256 0 l 1,9,-1
 384 0 l 1,10,-1
 384 -128 l 1,11,-1
 512 -128 l 1,12,-1
 512 0 l 1,13,-1
 640 0 l 1,14,-1
 640 128 l 1,15,-1
 256 128 l 1,8,-1
384 -128 m 1,16,-1
 256 -128 l 1,17,-1
 256 -256 l 1,18,-1
 384 -256 l 1,19,-1
 384 -128 l 1,16,-1
EndSplineSet
Validated: 517
EndChar

StartChar: u circonflexe
Encoding: 251 251 25
Width: 1024
GlyphClass: 2
Flags: W
LayerCount: 2
Fore
SplineSet
384 896 m 1,0,-1
 384 768 l 1,1,-1
 512 768 l 1,2,-1
 512 896 l 1,3,-1
 384 896 l 1,0,-1
512 768 m 1,4,-1
 512 640 l 1,5,-1
 640 640 l 1,6,-1
 640 768 l 1,7,-1
 512 768 l 1,4,-1
384 768 m 1,8,-1
 256 768 l 1,9,-1
 256 640 l 1,10,-1
 384 640 l 1,11,-1
 384 768 l 1,8,-1
128 512 m 1,12,-1
 128 128 l 1,13,-1
 256 128 l 1,14,-1
 256 512 l 1,15,-1
 128 512 l 1,12,-1
256 128 m 1,16,-1
 256 0 l 1,17,-1
 512 0 l 1,18,-1
 512 128 l 1,19,-1
 256 128 l 1,16,-1
512 128 m 1,20,-1
 640 128 l 1,21,-1
 640 0 l 1,22,-1
 768 0 l 1,23,-1
 768 512 l 1,24,-1
 640 512 l 1,25,-1
 640 256 l 1,26,-1
 512 256 l 1,27,-1
 512 128 l 1,20,-1
EndSplineSet
Validated: 517
EndChar

StartChar: a accent grave
Encoding: 224 224 26
Width: 1024
GlyphClass: 2
Flags: W
LayerCount: 2
Fore
SplineSet
256 896 m 1,0,-1
 256 768 l 1,1,-1
 384 768 l 1,2,-1
 384 896 l 1,3,-1
 256 896 l 1,0,-1
384 768 m 1,4,-1
 384 640 l 1,5,-1
 256 640 l 1,6,-1
 256 512 l 1,7,-1
 512 512 l 1,8,-1
 512 640 l 1,9,-1
 512 768 l 1,10,-1
 384 768 l 1,4,-1
512 512 m 1,11,-1
 512 384 l 1,12,-1
 640 384 l 1,13,-1
 640 256 l 1,14,-1
 512 256 l 1,15,-1
 512 128 l 1,16,-1
 640 128 l 1,17,-1
 640 0 l 1,18,-1
 768 0 l 1,19,-1
 768 640 l 1,20,-1
 640 640 l 1,21,-1
 640 512 l 1,22,-1
 512 512 l 1,11,-1
512 128 m 1,23,-1
 256 128 l 1,24,-1
 256 0 l 1,25,-1
 512 0 l 1,26,-1
 512 128 l 1,23,-1
256 128 m 1,27,-1
 256 512 l 1,28,-1
 128 512 l 1,29,-1
 128 128 l 1,30,-1
 256 128 l 1,27,-1
EndSplineSet
Validated: 517
EndChar

StartChar: division
Encoding: 247 247 27
Width: 1024
GlyphClass: 2
Flags: W
LayerCount: 2
Fore
SplineSet
384 768 m 1,0,-1
 384 640 l 1,1,-1
 512 640 l 1,2,-1
 512 768 l 1,3,-1
 384 768 l 1,0,-1
128 512 m 1,4,-1
 128 384 l 1,5,-1
 768 384 l 1,6,-1
 768 512 l 1,7,-1
 128 512 l 1,4,-1
384 256 m 1,8,-1
 384 128 l 1,9,-1
 512 128 l 1,10,-1
 512 256 l 1,11,-1
 384 256 l 1,8,-1
EndSplineSet
Validated: 9
EndChar

StartChar: e accent grave
Encoding: 232 232 28
Width: 1024
GlyphClass: 2
Flags: W
LayerCount: 2
Fore
SplineSet
256 896 m 1,0,-1
 256 768 l 1,1,-1
 384 768 l 1,2,-1
 384 896 l 1,3,-1
 256 896 l 1,0,-1
384 768 m 1,4,-1
 384 640 l 1,5,-1
 256 640 l 1,6,-1
 256 512 l 1,7,-1
 640 512 l 1,8,-1
 640 640 l 1,9,-1
 512 640 l 1,10,-1
 512 768 l 1,11,-1
 384 768 l 1,4,-1
640 512 m 1,12,-1
 640 384 l 1,13,-1
 256 384 l 1,14,-1
 256 512 l 1,15,-1
 128 512 l 1,16,-1
 128 384 l 1,17,-1
 128 256 l 1,18,-1
 128 128 l 1,19,-1
 256 128 l 1,20,-1
 256 256 l 1,21,-1
 768 256 l 1,22,-1
 768 384 l 1,23,-1
 768 512 l 1,24,-1
 640 512 l 1,12,-1
256 128 m 1,25,-1
 256 0 l 1,26,-1
 640 0 l 1,27,-1
 640 128 l 1,28,-1
 256 128 l 1,25,-1
EndSplineSet
Validated: 517
EndChar

StartChar: ligature oe
Encoding: 339 339 29
Width: 1024
GlyphClass: 2
Flags: W
LayerCount: 2
Fore
SplineSet
256 640 m 1,0,-1
 256 512 l 1,1,-1
 384 512 l 1,2,-1
 384 128 l 1,3,-1
 256 128 l 1,4,-1
 256 0 l 1,5,-1
 896 0 l 1,6,-1
 896 128 l 1,7,-1
 512 128 l 1,8,-1
 512 256 l 1,9,-1
 896 256 l 1,10,-1
 896 384 l 1,11,-1
 896 512 l 1,12,-1
 768 512 l 1,13,-1
 768 384 l 1,14,-1
 512 384 l 1,15,-1
 512 512 l 1,16,-1
 768 512 l 1,17,-1
 768 640 l 1,18,-1
 256 640 l 1,0,-1
256 128 m 1,19,-1
 256 512 l 1,20,-1
 128 512 l 1,21,-1
 128 128 l 1,22,-1
 256 128 l 1,19,-1
EndSplineSet
Validated: 517
EndChar

StartChar: e circonflexe
Encoding: 234 234 30
Width: 1024
GlyphClass: 2
Flags: W
LayerCount: 2
Fore
SplineSet
384 896 m 1,0,-1
 384 768 l 1,1,-1
 512 768 l 1,2,-1
 512 896 l 1,3,-1
 384 896 l 1,0,-1
512 768 m 1,4,-1
 512 640 l 1,5,-1
 384 640 l 1,6,-1
 384 768 l 1,7,-1
 256 768 l 1,8,-1
 256 640 l 1,9,-1
 256 512 l 1,10,-1
 640 512 l 1,11,-1
 640 640 l 1,12,-1
 640 768 l 1,13,-1
 512 768 l 1,4,-1
640 512 m 1,14,-1
 640 384 l 1,15,-1
 256 384 l 1,16,-1
 256 512 l 1,17,-1
 128 512 l 1,18,-1
 128 384 l 1,19,-1
 128 256 l 1,20,-1
 128 128 l 1,21,-1
 256 128 l 1,22,-1
 256 256 l 1,23,-1
 768 256 l 1,24,-1
 768 384 l 1,25,-1
 768 512 l 1,26,-1
 640 512 l 1,14,-1
256 128 m 1,27,-1
 256 0 l 1,28,-1
 640 0 l 1,29,-1
 640 128 l 1,30,-1
 256 128 l 1,27,-1
EndSplineSet
Validated: 517
EndChar

StartChar: un quart
Encoding: 188 188 31
Width: 1024
GlyphClass: 2
Flags: W
LayerCount: 2
Fore
SplineSet
128 896 m 1,0,-1
 128 768 l 1,1,-1
 0 768 l 1,2,-1
 0 640 l 1,3,-1
 128 640 l 1,4,-1
 128 256 l 1,5,-1
 256 256 l 1,6,-1
 256 896 l 1,7,-1
 128 896 l 1,0,-1
640 512 m 1,8,-1
 640 384 l 1,9,-1
 512 384 l 1,10,-1
 512 256 l 1,11,-1
 640 256 l 1,12,-1
 640 128 l 1,13,-1
 512 128 l 1,14,-1
 512 256 l 1,15,-1
 384 256 l 1,16,-1
 384 128 l 1,17,-1
 256 128 l 1,18,-1
 256 0 l 1,19,-1
 640 0 l 1,20,-1
 640 -128 l 1,21,-1
 768 -128 l 1,22,-1
 768 0 l 1,23,-1
 896 0 l 1,24,-1
 896 128 l 1,25,-1
 768 128 l 1,26,-1
 768 512 l 1,27,-1
 640 512 l 1,8,-1
EndSplineSet
Validated: 517
EndChar

StartChar: un demi
Encoding: 189 189 32
Width: 1024
GlyphClass: 2
Flags: W
LayerCount: 2
Fore
SplineSet
128 896 m 1,0,-1
 128 768 l 1,1,-1
 0 768 l 1,2,-1
 0 640 l 1,3,-1
 128 640 l 1,4,-1
 128 256 l 1,5,-1
 256 256 l 1,6,-1
 256 896 l 1,7,-1
 128 896 l 1,0,-1
512 512 m 1,8,-1
 512 384 l 1,9,-1
 768 384 l 1,10,-1
 768 512 l 1,11,-1
 512 512 l 1,8,-1
768 384 m 1,12,-1
 768 256 l 1,13,-1
 896 256 l 1,14,-1
 896 384 l 1,15,-1
 768 384 l 1,12,-1
768 256 m 1,16,-1
 640 256 l 1,17,-1
 640 128 l 1,18,-1
 768 128 l 1,19,-1
 768 256 l 1,16,-1
640 128 m 1,20,-1
 512 128 l 1,21,-1
 512 0 l 1,22,-1
 384 0 l 1,23,-1
 384 -128 l 1,24,-1
 896 -128 l 1,25,-1
 896 0 l 1,26,-1
 640 0 l 1,27,-1
 640 128 l 1,20,-1
512 384 m 1,28,-1
 384 384 l 1,29,-1
 384 256 l 1,30,-1
 512 256 l 1,31,-1
 512 384 l 1,28,-1
EndSplineSet
Validated: 517
EndChar

StartChar: trois quart
Encoding: 190 190 33
Width: 1024
GlyphClass: 2
Flags: W
LayerCount: 2
Fore
SplineSet
0 896 m 1,0,-1
 0 768 l 1,1,-1
 256 768 l 1,2,-1
 256 640 l 1,3,-1
 384 640 l 1,4,-1
 384 768 l 1,5,-1
 384 896 l 1,6,-1
 0 896 l 1,0,-1
256 640 m 1,7,-1
 128 640 l 1,8,-1
 128 512 l 1,9,-1
 256 512 l 1,10,-1
 256 640 l 1,7,-1
256 512 m 1,11,-1
 256 384 l 1,12,-1
 384 384 l 1,13,-1
 384 512 l 1,14,-1
 256 512 l 1,11,-1
256 384 m 1,15,-1
 0 384 l 1,16,-1
 0 256 l 1,17,-1
 256 256 l 1,18,-1
 256 384 l 1,15,-1
640 512 m 1,19,-1
 640 384 l 1,20,-1
 512 384 l 1,21,-1
 512 256 l 1,22,-1
 640 256 l 1,23,-1
 640 128 l 1,24,-1
 512 128 l 1,25,-1
 512 256 l 1,26,-1
 384 256 l 1,27,-1
 384 128 l 1,28,-1
 256 128 l 1,29,-1
 256 0 l 1,30,-1
 640 0 l 1,31,-1
 640 -128 l 1,32,-1
 768 -128 l 1,33,-1
 768 0 l 1,34,-1
 896 0 l 1,35,-1
 896 128 l 1,36,-1
 768 128 l 1,37,-1
 768 512 l 1,38,-1
 640 512 l 1,19,-1
EndSplineSet
Validated: 517
EndChar

StartChar: o circonflexe
Encoding: 244 244 34
Width: 1024
GlyphClass: 2
Flags: W
LayerCount: 2
Fore
SplineSet
384 896 m 1,0,-1
 384 768 l 1,1,-1
 512 768 l 1,2,-1
 512 896 l 1,3,-1
 384 896 l 1,0,-1
512 768 m 1,4,-1
 512 640 l 1,5,-1
 640 640 l 1,6,-1
 640 768 l 1,7,-1
 512 768 l 1,4,-1
384 768 m 1,8,-1
 256 768 l 1,9,-1
 256 640 l 1,10,-1
 384 640 l 1,11,-1
 384 768 l 1,8,-1
256 512 m 1,12,-1
 256 384 l 1,13,-1
 640 384 l 1,14,-1
 640 512 l 1,15,-1
 256 512 l 1,12,-1
640 384 m 1,16,-1
 640 128 l 1,17,-1
 768 128 l 1,18,-1
 768 384 l 1,19,-1
 640 384 l 1,16,-1
640 128 m 1,20,-1
 256 128 l 1,21,-1
 256 0 l 1,22,-1
 640 0 l 1,23,-1
 640 128 l 1,20,-1
256 128 m 1,24,-1
 256 384 l 1,25,-1
 128 384 l 1,26,-1
 128 128 l 1,27,-1
 256 128 l 1,24,-1
EndSplineSet
Validated: 517
EndChar

StartChar: point exclamation
Encoding: 33 33 35
Width: 1024
GlyphClass: 2
Flags: W
LayerCount: 2
Fore
SplineSet
384 896 m 1,0,-1
 384 256 l 1,1,-1
 512 256 l 1,2,-1
 512 896 l 1,3,-1
 384 896 l 1,0,-1
384 128 m 1,4,-1
 384 0 l 1,5,-1
 512 0 l 1,6,-1
 512 128 l 1,7,-1
 384 128 l 1,4,-1
EndSplineSet
Validated: 521
EndChar

StartChar: double quote
Encoding: 34 34 36
Width: 1024
GlyphClass: 2
Flags: W
LayerCount: 2
Fore
SplineSet
256 896 m 1,0,-1
 256 640 l 1,1,-1
 384 640 l 1,2,-1
 384 896 l 1,3,-1
 256 896 l 1,0,-1
512 896 m 1,4,-1
 512 640 l 1,5,-1
 640 640 l 1,6,-1
 640 896 l 1,7,-1
 512 896 l 1,4,-1
EndSplineSet
Validated: 521
EndChar

StartChar: diese
Encoding: 35 35 37
Width: 1024
GlyphClass: 2
Flags: W
LayerCount: 2
Fore
SplineSet
256 896 m 1,0,-1
 256 640 l 1,1,-1
 128 640 l 1,2,-1
 128 512 l 1,3,-1
 256 512 l 1,4,-1
 256 384 l 1,5,-1
 128 384 l 1,6,-1
 128 256 l 1,7,-1
 256 256 l 1,8,-1
 256 0 l 1,9,-1
 384 0 l 1,10,-1
 384 256 l 1,11,-1
 512 256 l 1,12,-1
 512 0 l 1,13,-1
 640 0 l 1,14,-1
 640 256 l 1,15,-1
 768 256 l 1,16,-1
 768 384 l 1,17,-1
 640 384 l 1,18,-1
 640 512 l 1,19,-1
 768 512 l 1,20,-1
 768 640 l 1,21,-1
 640 640 l 1,22,-1
 640 896 l 1,23,-1
 512 896 l 1,24,-1
 512 640 l 1,25,-1
 384 640 l 1,26,-1
 384 896 l 1,27,-1
 256 896 l 1,0,-1
384 512 m 1,28,-1
 512 512 l 1,29,-1
 512 384 l 1,30,-1
 384 384 l 1,31,-1
 384 512 l 1,28,-1
EndSplineSet
Validated: 9
EndChar

StartChar: dollar
Encoding: 36 36 38
Width: 1024
GlyphClass: 2
Flags: W
LayerCount: 2
Fore
SplineSet
384 896 m 1,0,-1
 384 768 l 1,1,-1
 256 768 l 1,2,-1
 256 640 l 1,3,-1
 384 640 l 1,4,-1
 384 512 l 1,5,-1
 256 512 l 1,6,-1
 256 384 l 1,7,-1
 384 384 l 1,8,-1
 384 128 l 1,9,-1
 256 128 l 1,10,-1
 256 0 l 1,11,-1
 384 0 l 1,12,-1
 384 -128 l 1,13,-1
 512 -128 l 1,14,-1
 512 0 l 1,15,-1
 640 0 l 1,16,-1
 640 128 l 1,17,-1
 512 128 l 1,18,-1
 512 384 l 1,19,-1
 640 384 l 1,20,-1
 640 512 l 1,21,-1
 512 512 l 1,22,-1
 512 640 l 1,23,-1
 640 640 l 1,24,-1
 640 768 l 1,25,-1
 512 768 l 1,26,-1
 512 896 l 1,27,-1
 384 896 l 1,0,-1
640 384 m 1,28,-1
 640 128 l 1,29,-1
 768 128 l 1,30,-1
 768 384 l 1,31,-1
 640 384 l 1,28,-1
256 128 m 1,32,-1
 256 256 l 1,33,-1
 128 256 l 1,34,-1
 128 128 l 1,35,-1
 256 128 l 1,32,-1
256 512 m 1,36,-1
 256 640 l 1,37,-1
 128 640 l 1,38,-1
 128 512 l 1,39,-1
 256 512 l 1,36,-1
EndSplineSet
Validated: 5
EndChar

StartChar: pourcent
Encoding: 37 37 39
Width: 1024
GlyphClass: 2
Flags: W
LayerCount: 2
Fore
SplineSet
128 896 m 1,0,-1
 128 640 l 1,1,-1
 384 640 l 1,2,-1
 384 896 l 1,3,-1
 128 896 l 1,0,-1
640 768 m 1,4,-1
 640 640 l 1,5,-1
 768 640 l 1,6,-1
 768 768 l 1,7,-1
 640 768 l 1,4,-1
640 640 m 1,8,-1
 512 640 l 1,9,-1
 512 512 l 1,10,-1
 640 512 l 1,11,-1
 640 640 l 1,8,-1
512 512 m 1,12,-1
 384 512 l 1,13,-1
 384 384 l 1,14,-1
 512 384 l 1,15,-1
 512 512 l 1,12,-1
384 384 m 1,16,-1
 256 384 l 1,17,-1
 256 256 l 1,18,-1
 384 256 l 1,19,-1
 384 384 l 1,16,-1
256 256 m 1,20,-1
 128 256 l 1,21,-1
 128 128 l 1,22,-1
 256 128 l 1,23,-1
 256 256 l 1,20,-1
512 256 m 1,24,-1
 512 0 l 1,25,-1
 768 0 l 1,26,-1
 768 256 l 1,27,-1
 512 256 l 1,24,-1
EndSplineSet
Validated: 5
EndChar

StartChar: esperluette
Encoding: 38 38 40
Width: 1024
GlyphClass: 2
Flags: W
LayerCount: 2
Fore
SplineSet
256 896 m 1,0,-1
 256 768 l 1,1,-1
 384 768 l 1,2,-1
 384 896 l 1,3,-1
 256 896 l 1,0,-1
384 768 m 1,4,-1
 384 512 l 1,5,-1
 512 512 l 1,6,-1
 512 768 l 1,7,-1
 384 768 l 1,4,-1
384 512 m 1,8,-1
 256 512 l 1,9,-1
 256 384 l 1,10,-1
 384 384 l 1,11,-1
 384 512 l 1,8,-1
384 384 m 1,12,-1
 384 256 l 1,13,-1
 512 256 l 1,14,-1
 512 384 l 1,15,-1
 384 384 l 1,12,-1
512 256 m 1,16,-1
 512 128 l 1,17,-1
 640 128 l 1,18,-1
 640 256 l 1,19,-1
 512 256 l 1,16,-1
640 256 m 1,20,-1
 768 256 l 1,21,-1
 768 384 l 1,22,-1
 640 384 l 1,23,-1
 640 256 l 1,20,-1
640 128 m 1,24,-1
 640 0 l 1,25,-1
 768 0 l 1,26,-1
 768 128 l 1,27,-1
 640 128 l 1,24,-1
512 128 m 1,28,-1
 256 128 l 1,29,-1
 256 0 l 1,30,-1
 512 0 l 1,31,-1
 512 128 l 1,28,-1
256 128 m 1,32,-1
 256 384 l 1,33,-1
 128 384 l 1,34,-1
 128 128 l 1,35,-1
 256 128 l 1,32,-1
256 512 m 1,36,-1
 256 768 l 1,37,-1
 128 768 l 1,38,-1
 128 512 l 1,39,-1
 256 512 l 1,36,-1
EndSplineSet
Validated: 5
EndChar

StartChar: apostrophe
Encoding: 39 39 41
Width: 1024
GlyphClass: 2
Flags: W
LayerCount: 2
Fore
SplineSet
384 896 m 1,0,-1
 384 640 l 1,1,-1
 512 640 l 1,2,-1
 512 896 l 1,3,-1
 384 896 l 1,0,-1
384 640 m 1,4,-1
 256 640 l 1,5,-1
 256 512 l 1,6,-1
 384 512 l 1,7,-1
 384 640 l 1,4,-1
EndSplineSet
Validated: 5
EndChar

StartChar: apostrophe typo
Encoding: 8217 8217 42
Width: 1024
GlyphClass: 2
Flags: W
LayerCount: 2
Fore
SplineSet
384 896 m 1,0,-1
 384 640 l 1,1,-1
 512 640 l 1,2,-1
 512 896 l 1,3,-1
 384 896 l 1,0,-1
384 640 m 1,4,-1
 256 640 l 1,5,-1
 256 512 l 1,6,-1
 384 512 l 1,7,-1
 384 640 l 1,4,-1
EndSplineSet
Validated: 517
EndChar

StartChar: parenthese ouvrante
Encoding: 40 40 43
Width: 1024
GlyphClass: 2
Flags: W
LayerCount: 2
Fore
SplineSet
512 896 m 1,0,-1
 512 768 l 1,1,-1
 640 768 l 1,2,-1
 640 896 l 1,3,-1
 512 896 l 1,0,-1
512 768 m 1,4,-1
 384 768 l 1,5,-1
 384 640 l 1,6,-1
 512 640 l 1,7,-1
 512 768 l 1,4,-1
384 640 m 1,8,-1
 256 640 l 1,9,-1
 256 256 l 1,10,-1
 384 256 l 1,11,-1
 384 640 l 1,8,-1
384 256 m 1,12,-1
 384 128 l 1,13,-1
 512 128 l 1,14,-1
 512 256 l 1,15,-1
 384 256 l 1,12,-1
512 128 m 1,16,-1
 512 0 l 1,17,-1
 640 0 l 1,18,-1
 640 128 l 1,19,-1
 512 128 l 1,16,-1
EndSplineSet
Validated: 517
EndChar

StartChar: parenthese fermante
Encoding: 41 41 44
Width: 1024
GlyphClass: 2
Flags: W
LayerCount: 2
Fore
SplineSet
256 896 m 1,0,-1
 256 768 l 1,1,-1
 384 768 l 1,2,-1
 384 896 l 1,3,-1
 256 896 l 1,0,-1
384 768 m 1,4,-1
 384 640 l 1,5,-1
 512 640 l 1,6,-1
 512 768 l 1,7,-1
 384 768 l 1,4,-1
512 640 m 1,8,-1
 512 256 l 1,9,-1
 640 256 l 1,10,-1
 640 640 l 1,11,-1
 512 640 l 1,8,-1
512 256 m 1,12,-1
 384 256 l 1,13,-1
 384 128 l 1,14,-1
 512 128 l 1,15,-1
 512 256 l 1,12,-1
384 128 m 1,16,-1
 256 128 l 1,17,-1
 256 0 l 1,18,-1
 384 0 l 1,19,-1
 384 128 l 1,16,-1
EndSplineSet
Validated: 517
EndChar

StartChar: etoile
Encoding: 42 42 45
Width: 1024
GlyphClass: 2
Flags: W
LayerCount: 2
Fore
SplineSet
384 896 m 1,0,-1
 384 640 l 1,1,-1
 256 640 l 1,2,-1
 256 512 l 1,3,-1
 384 512 l 1,4,-1
 384 384 l 1,5,-1
 256 384 l 1,6,-1
 256 256 l 1,7,-1
 384 256 l 1,8,-1
 384 0 l 1,9,-1
 512 0 l 1,10,-1
 512 256 l 1,11,-1
 640 256 l 1,12,-1
 640 384 l 1,13,-1
 512 384 l 1,14,-1
 512 512 l 1,15,-1
 640 512 l 1,16,-1
 640 640 l 1,17,-1
 512 640 l 1,18,-1
 512 896 l 1,19,-1
 384 896 l 1,0,-1
640 640 m 1,20,-1
 768 640 l 1,21,-1
 768 768 l 1,22,-1
 640 768 l 1,23,-1
 640 640 l 1,20,-1
640 256 m 1,24,-1
 640 128 l 1,25,-1
 768 128 l 1,26,-1
 768 256 l 1,27,-1
 640 256 l 1,24,-1
256 256 m 1,28,-1
 128 256 l 1,29,-1
 128 128 l 1,30,-1
 256 128 l 1,31,-1
 256 256 l 1,28,-1
256 640 m 1,32,-1
 256 768 l 1,33,-1
 128 768 l 1,34,-1
 128 640 l 1,35,-1
 256 640 l 1,32,-1
EndSplineSet
Validated: 5
EndChar

StartChar: plus
Encoding: 43 43 46
Width: 1024
GlyphClass: 2
Flags: W
LayerCount: 2
Fore
SplineSet
384 768 m 1,0,-1
 384 512 l 1,1,-1
 128 512 l 1,2,-1
 128 384 l 1,3,-1
 384 384 l 1,4,-1
 384 128 l 1,5,-1
 512 128 l 1,6,-1
 512 384 l 1,7,-1
 768 384 l 1,8,-1
 768 512 l 1,9,-1
 512 512 l 1,10,-1
 512 768 l 1,11,-1
 384 768 l 1,0,-1
EndSplineSet
Validated: 9
EndChar

StartChar: virgule
Encoding: 44 44 47
Width: 1024
GlyphClass: 2
Flags: W
LayerCount: 2
Fore
SplineSet
256 256 m 1,0,-1
 256 0 l 1,1,-1
 384 0 l 1,2,-1
 384 256 l 1,3,-1
 256 256 l 1,0,-1
256 0 m 1,4,-1
 128 0 l 1,5,-1
 128 -128 l 1,6,-1
 256 -128 l 1,7,-1
 256 0 l 1,4,-1
EndSplineSet
Validated: 5
EndChar

StartChar: moins
Encoding: 45 45 48
Width: 1024
GlyphClass: 2
Flags: W
LayerCount: 2
Fore
SplineSet
256 384 m 1,0,-1
 256 256 l 1,1,-1
 768 256 l 1,2,-1
 768 384 l 1,3,-1
 256 384 l 1,0,-1
EndSplineSet
Validated: 9
EndChar

StartChar: point
Encoding: 46 46 49
Width: 1024
GlyphClass: 2
Flags: W
LayerCount: 2
Fore
SplineSet
256 128 m 1,0,-1
 256 0 l 1,1,-1
 384 0 l 1,2,-1
 384 128 l 1,3,-1
 256 128 l 1,0,-1
EndSplineSet
Validated: 9
EndChar

StartChar: slash
Encoding: 47 47 50
Width: 1024
GlyphClass: 2
Flags: W
LayerCount: 2
Fore
SplineSet
896 1024 m 1,0,-1
 896 896 l 1,1,-1
 1024 896 l 1,2,-1
 1024 1024 l 1,3,-1
 896 1024 l 1,0,-1
896 896 m 1,4,-1
 768 896 l 1,5,-1
 768 640 l 1,6,-1
 896 640 l 1,7,-1
 896 896 l 1,4,-1
768 640 m 1,8,-1
 640 640 l 1,9,-1
 640 512 l 1,10,-1
 768 512 l 1,11,-1
 768 640 l 1,8,-1
640 512 m 1,12,-1
 512 512 l 1,13,-1
 512 384 l 1,14,-1
 640 384 l 1,15,-1
 640 512 l 1,12,-1
512 384 m 1,16,-1
 384 384 l 1,17,-1
 384 256 l 1,18,-1
 512 256 l 1,19,-1
 512 384 l 1,16,-1
384 256 m 1,20,-1
 256 256 l 1,21,-1
 256 0 l 1,22,-1
 384 0 l 1,23,-1
 384 256 l 1,20,-1
256 0 m 1,24,-1
 128 0 l 1,25,-1
 128 -128 l 1,26,-1
 256 -128 l 1,27,-1
 256 0 l 1,24,-1
128 -128 m 1,28,-1
 0 -128 l 1,29,-1
 0 -256 l 1,30,-1
 128 -256 l 1,31,-1
 128 -128 l 1,28,-1
EndSplineSet
Validated: 5
EndChar

StartChar: zero
Encoding: 48 48 51
Width: 1024
GlyphClass: 2
Flags: W
LayerCount: 2
Fore
SplineSet
384 896 m 1,0,-1
 384 768 l 1,1,-1
 512 768 l 1,2,-1
 512 896 l 1,3,-1
 384 896 l 1,0,-1
512 768 m 1,4,-1
 512 640 l 1,5,-1
 640 640 l 1,6,-1
 640 768 l 1,7,-1
 512 768 l 1,4,-1
640 640 m 1,8,-1
 640 256 l 1,9,-1
 768 256 l 1,10,-1
 768 640 l 1,11,-1
 640 640 l 1,8,-1
640 256 m 1,12,-1
 512 256 l 1,13,-1
 512 128 l 1,14,-1
 640 128 l 1,15,-1
 640 256 l 1,12,-1
512 128 m 1,16,-1
 384 128 l 1,17,-1
 384 0 l 1,18,-1
 512 0 l 1,19,-1
 512 128 l 1,16,-1
384 128 m 1,20,-1
 384 256 l 1,21,-1
 256 256 l 1,22,-1
 256 128 l 1,23,-1
 384 128 l 1,20,-1
256 256 m 1,24,-1
 256 640 l 1,25,-1
 128 640 l 1,26,-1
 128 256 l 1,27,-1
 256 256 l 1,24,-1
256 640 m 1,28,-1
 384 640 l 1,29,-1
 384 768 l 1,30,-1
 256 768 l 1,31,-1
 256 640 l 1,28,-1
EndSplineSet
Validated: 5
EndChar

StartChar: un
Encoding: 49 49 52
Width: 1024
GlyphClass: 2
Flags: W
LayerCount: 2
Fore
SplineSet
384 896 m 1,0,-1
 384 768 l 1,1,-1
 256 768 l 1,2,-1
 256 640 l 1,3,-1
 384 640 l 1,4,-1
 384 0 l 1,5,-1
 512 0 l 1,6,-1
 512 896 l 1,7,-1
 384 896 l 1,0,-1
EndSplineSet
Validated: 9
EndChar

StartChar: deux
Encoding: 50 50 53
Width: 1024
GlyphClass: 2
Flags: W
LayerCount: 2
Fore
SplineSet
256 896 m 1,0,-1
 256 768 l 1,1,-1
 640 768 l 1,2,-1
 640 896 l 1,3,-1
 256 896 l 1,0,-1
640 768 m 1,4,-1
 640 512 l 1,5,-1
 768 512 l 1,6,-1
 768 768 l 1,7,-1
 640 768 l 1,4,-1
640 512 m 1,8,-1
 384 512 l 1,9,-1
 384 384 l 1,10,-1
 640 384 l 1,11,-1
 640 512 l 1,8,-1
384 384 m 1,12,-1
 256 384 l 1,13,-1
 256 256 l 1,14,-1
 384 256 l 1,15,-1
 384 384 l 1,12,-1
256 256 m 1,16,-1
 128 256 l 1,17,-1
 128 128 l 1,18,-1
 128 0 l 1,19,-1
 768 0 l 1,20,-1
 768 128 l 1,21,-1
 256 128 l 1,22,-1
 256 256 l 1,16,-1
256 768 m 1,23,-1
 128 768 l 1,24,-1
 128 640 l 1,25,-1
 256 640 l 1,26,-1
 256 768 l 1,23,-1
EndSplineSet
Validated: 5
EndChar

StartChar: trois
Encoding: 51 51 54
Width: 1024
GlyphClass: 2
Flags: W
LayerCount: 2
Fore
SplineSet
128 896 m 1,0,-1
 128 768 l 1,1,-1
 640 768 l 1,2,-1
 640 640 l 1,3,-1
 768 640 l 1,4,-1
 768 768 l 1,5,-1
 768 896 l 1,6,-1
 128 896 l 1,0,-1
640 640 m 1,7,-1
 512 640 l 1,8,-1
 512 512 l 1,9,-1
 384 512 l 1,10,-1
 384 384 l 1,11,-1
 512 384 l 1,12,-1
 640 384 l 1,13,-1
 640 640 l 1,7,-1
640 384 m 1,14,-1
 640 128 l 1,15,-1
 768 128 l 1,16,-1
 768 384 l 1,17,-1
 640 384 l 1,14,-1
640 128 m 1,18,-1
 256 128 l 1,19,-1
 256 0 l 1,20,-1
 640 0 l 1,21,-1
 640 128 l 1,18,-1
256 128 m 1,22,-1
 256 256 l 1,23,-1
 128 256 l 1,24,-1
 128 128 l 1,25,-1
 256 128 l 1,22,-1
EndSplineSet
Validated: 5
EndChar

StartChar: quatre
Encoding: 52 52 55
Width: 1024
GlyphClass: 2
Flags: W
LayerCount: 2
Fore
SplineSet
512 896 m 1,0,-1
 512 768 l 1,1,-1
 384 768 l 1,2,-1
 384 640 l 1,3,-1
 512 640 l 1,4,-1
 512 384 l 1,5,-1
 256 384 l 1,6,-1
 256 512 l 1,7,-1
 128 512 l 1,8,-1
 128 384 l 1,9,-1
 128 256 l 1,10,-1
 512 256 l 1,11,-1
 512 0 l 1,12,-1
 640 0 l 1,13,-1
 640 256 l 1,14,-1
 768 256 l 1,15,-1
 768 384 l 1,16,-1
 640 384 l 1,17,-1
 640 896 l 1,18,-1
 512 896 l 1,0,-1
256 512 m 1,19,-1
 384 512 l 1,20,-1
 384 640 l 1,21,-1
 256 640 l 1,22,-1
 256 512 l 1,19,-1
EndSplineSet
Validated: 5
EndChar

StartChar: cinq
Encoding: 53 53 56
Width: 1024
GlyphClass: 2
Flags: W
LayerCount: 2
Fore
SplineSet
128 896 m 1,0,-1
 128 768 l 1,1,-1
 128 640 l 1,2,-1
 128 512 l 1,3,-1
 640 512 l 1,4,-1
 640 640 l 1,5,-1
 256 640 l 1,6,-1
 256 768 l 1,7,-1
 768 768 l 1,8,-1
 768 896 l 1,9,-1
 128 896 l 1,0,-1
640 512 m 1,10,-1
 640 128 l 1,11,-1
 768 128 l 1,12,-1
 768 512 l 1,13,-1
 640 512 l 1,10,-1
640 128 m 1,14,-1
 256 128 l 1,15,-1
 256 0 l 1,16,-1
 640 0 l 1,17,-1
 640 128 l 1,14,-1
256 128 m 1,18,-1
 256 256 l 1,19,-1
 128 256 l 1,20,-1
 128 128 l 1,21,-1
 256 128 l 1,18,-1
EndSplineSet
Validated: 5
EndChar

StartChar: six
Encoding: 54 54 57
Width: 1024
GlyphClass: 2
Flags: W
LayerCount: 2
Fore
SplineSet
384 896 m 1,0,-1
 384 768 l 1,1,-1
 640 768 l 1,2,-1
 640 896 l 1,3,-1
 384 896 l 1,0,-1
384 768 m 1,4,-1
 256 768 l 1,5,-1
 256 640 l 1,6,-1
 384 640 l 1,7,-1
 384 768 l 1,4,-1
256 640 m 1,8,-1
 128 640 l 1,9,-1
 128 128 l 1,10,-1
 256 128 l 1,11,-1
 256 384 l 1,12,-1
 640 384 l 1,13,-1
 640 512 l 1,14,-1
 256 512 l 1,15,-1
 256 640 l 1,8,-1
640 384 m 1,16,-1
 640 128 l 1,17,-1
 768 128 l 1,18,-1
 768 384 l 1,19,-1
 640 384 l 1,16,-1
640 128 m 1,20,-1
 256 128 l 1,21,-1
 256 0 l 1,22,-1
 640 0 l 1,23,-1
 640 128 l 1,20,-1
EndSplineSet
Validated: 5
EndChar

StartChar: sept
Encoding: 55 55 58
Width: 1024
GlyphClass: 2
Flags: W
LayerCount: 2
Fore
SplineSet
128 896 m 1,0,-1
 128 768 l 1,1,-1
 640 768 l 1,2,-1
 640 640 l 1,3,-1
 768 640 l 1,4,-1
 768 768 l 1,5,-1
 768 896 l 1,6,-1
 128 896 l 1,0,-1
640 640 m 1,7,-1
 512 640 l 1,8,-1
 512 512 l 1,9,-1
 640 512 l 1,10,-1
 640 640 l 1,7,-1
512 512 m 1,11,-1
 384 512 l 1,12,-1
 384 384 l 1,13,-1
 512 384 l 1,14,-1
 512 512 l 1,11,-1
384 384 m 1,15,-1
 256 384 l 1,16,-1
 256 0 l 1,17,-1
 384 0 l 1,18,-1
 384 384 l 1,15,-1
EndSplineSet
Validated: 5
EndChar

StartChar: huit
Encoding: 56 56 59
Width: 1024
GlyphClass: 2
Flags: W
LayerCount: 2
Fore
SplineSet
256 896 m 1,0,-1
 256 768 l 1,1,-1
 640 768 l 1,2,-1
 640 896 l 1,3,-1
 256 896 l 1,0,-1
640 768 m 1,4,-1
 640 512 l 1,5,-1
 768 512 l 1,6,-1
 768 768 l 1,7,-1
 640 768 l 1,4,-1
640 512 m 1,8,-1
 256 512 l 1,9,-1
 256 384 l 1,10,-1
 640 384 l 1,11,-1
 640 512 l 1,8,-1
640 384 m 1,12,-1
 640 128 l 1,13,-1
 768 128 l 1,14,-1
 768 384 l 1,15,-1
 640 384 l 1,12,-1
640 128 m 1,16,-1
 256 128 l 1,17,-1
 256 0 l 1,18,-1
 640 0 l 1,19,-1
 640 128 l 1,16,-1
256 128 m 1,20,-1
 256 384 l 1,21,-1
 128 384 l 1,22,-1
 128 128 l 1,23,-1
 256 128 l 1,20,-1
256 512 m 1,24,-1
 256 768 l 1,25,-1
 128 768 l 1,26,-1
 128 512 l 1,27,-1
 256 512 l 1,24,-1
EndSplineSet
Validated: 5
EndChar

StartChar: neuf
Encoding: 57 57 60
Width: 1024
GlyphClass: 2
Flags: W
LayerCount: 2
Fore
SplineSet
256 896 m 1,0,-1
 256 768 l 1,1,-1
 640 768 l 1,2,-1
 640 896 l 1,3,-1
 256 896 l 1,0,-1
640 768 m 1,4,-1
 640 512 l 1,5,-1
 256 512 l 1,6,-1
 256 384 l 1,7,-1
 640 384 l 1,8,-1
 640 128 l 1,9,-1
 768 128 l 1,10,-1
 768 768 l 1,11,-1
 640 768 l 1,4,-1
640 128 m 1,12,-1
 256 128 l 1,13,-1
 256 0 l 1,14,-1
 640 0 l 1,15,-1
 640 128 l 1,12,-1
256 512 m 1,16,-1
 256 768 l 1,17,-1
 128 768 l 1,18,-1
 128 512 l 1,19,-1
 256 512 l 1,16,-1
EndSplineSet
Validated: 5
EndChar

StartChar: deux points
Encoding: 58 58 61
Width: 1024
GlyphClass: 2
Flags: W
LayerCount: 2
Fore
SplineSet
256 640 m 1,0,-1
 256 512 l 1,1,-1
 384 512 l 1,2,-1
 384 640 l 1,3,-1
 256 640 l 1,0,-1
256 128 m 1,4,-1
 256 0 l 1,5,-1
 384 0 l 1,6,-1
 384 128 l 1,7,-1
 256 128 l 1,4,-1
EndSplineSet
Validated: 521
EndChar

StartChar: point virgule
Encoding: 59 59 62
Width: 1024
GlyphClass: 2
Flags: W
LayerCount: 2
Fore
SplineSet
256 640 m 1,0,-1
 256 512 l 1,1,-1
 384 512 l 1,2,-1
 384 640 l 1,3,-1
 256 640 l 1,0,-1
256 256 m 1,4,-1
 256 0 l 1,5,-1
 384 0 l 1,6,-1
 384 256 l 1,7,-1
 256 256 l 1,4,-1
256 0 m 1,8,-1
 128 0 l 1,9,-1
 128 -128 l 1,10,-1
 256 -128 l 1,11,-1
 256 0 l 1,8,-1
EndSplineSet
Validated: 517
EndChar

StartChar: inferieur
Encoding: 60 60 63
Width: 1024
GlyphClass: 2
Flags: W
LayerCount: 2
Fore
SplineSet
640 896 m 1,0,-1
 640 768 l 1,1,-1
 768 768 l 1,2,-1
 768 896 l 1,3,-1
 640 896 l 1,0,-1
640 768 m 1,4,-1
 512 768 l 1,5,-1
 512 640 l 1,6,-1
 640 640 l 1,7,-1
 640 768 l 1,4,-1
512 640 m 1,8,-1
 384 640 l 1,9,-1
 384 512 l 1,10,-1
 512 512 l 1,11,-1
 512 640 l 1,8,-1
384 512 m 1,12,-1
 256 512 l 1,13,-1
 256 384 l 1,14,-1
 384 384 l 1,15,-1
 384 512 l 1,12,-1
384 384 m 1,16,-1
 384 256 l 1,17,-1
 512 256 l 1,18,-1
 512 384 l 1,19,-1
 384 384 l 1,16,-1
512 256 m 1,20,-1
 512 128 l 1,21,-1
 640 128 l 1,22,-1
 640 256 l 1,23,-1
 512 256 l 1,20,-1
640 128 m 1,24,-1
 640 0 l 1,25,-1
 768 0 l 1,26,-1
 768 128 l 1,27,-1
 640 128 l 1,24,-1
EndSplineSet
Validated: 5
EndChar

StartChar: superieur
Encoding: 62 62 64
Width: 1024
GlyphClass: 2
Flags: W
LayerCount: 2
Fore
SplineSet
128 896 m 1,0,-1
 128 768 l 1,1,-1
 256 768 l 1,2,-1
 256 896 l 1,3,-1
 128 896 l 1,0,-1
256 768 m 1,4,-1
 256 640 l 1,5,-1
 384 640 l 1,6,-1
 384 768 l 1,7,-1
 256 768 l 1,4,-1
384 640 m 1,8,-1
 384 512 l 1,9,-1
 512 512 l 1,10,-1
 512 640 l 1,11,-1
 384 640 l 1,8,-1
512 512 m 1,12,-1
 512 384 l 1,13,-1
 640 384 l 1,14,-1
 640 512 l 1,15,-1
 512 512 l 1,12,-1
512 384 m 1,16,-1
 384 384 l 1,17,-1
 384 256 l 1,18,-1
 512 256 l 1,19,-1
 512 384 l 1,16,-1
384 256 m 1,20,-1
 256 256 l 1,21,-1
 256 128 l 1,22,-1
 384 128 l 1,23,-1
 384 256 l 1,20,-1
256 128 m 1,24,-1
 128 128 l 1,25,-1
 128 0 l 1,26,-1
 256 0 l 1,27,-1
 256 128 l 1,24,-1
EndSplineSet
Validated: 5
EndChar

StartChar: egal
Encoding: 61 61 65
Width: 1024
GlyphClass: 2
Flags: W
LayerCount: 2
Fore
SplineSet
128 640 m 1,0,-1
 128 512 l 1,1,-1
 768 512 l 1,2,-1
 768 640 l 1,3,-1
 128 640 l 1,0,-1
128 384 m 1,4,-1
 128 256 l 1,5,-1
 768 256 l 1,6,-1
 768 384 l 1,7,-1
 128 384 l 1,4,-1
EndSplineSet
Validated: 9
EndChar

StartChar: point interrogation
Encoding: 63 63 66
Width: 1024
GlyphClass: 2
Flags: W
LayerCount: 2
Fore
SplineSet
256 896 m 1,0,-1
 256 768 l 1,1,-1
 640 768 l 1,2,-1
 640 896 l 1,3,-1
 256 896 l 1,0,-1
640 768 m 1,4,-1
 640 512 l 1,5,-1
 768 512 l 1,6,-1
 768 768 l 1,7,-1
 640 768 l 1,4,-1
640 512 m 1,8,-1
 512 512 l 1,9,-1
 512 384 l 1,10,-1
 640 384 l 1,11,-1
 640 512 l 1,8,-1
512 384 m 1,12,-1
 384 384 l 1,13,-1
 384 256 l 1,14,-1
 512 256 l 1,15,-1
 512 384 l 1,12,-1
256 768 m 1,16,-1
 128 768 l 1,17,-1
 128 640 l 1,18,-1
 256 640 l 1,19,-1
 256 768 l 1,16,-1
384 128 m 1,20,-1
 384 0 l 1,21,-1
 512 0 l 1,22,-1
 512 128 l 1,23,-1
 384 128 l 1,20,-1
EndSplineSet
Validated: 517
EndChar

StartChar: arobase
Encoding: 64 64 67
Width: 1024
GlyphClass: 2
Flags: W
LayerCount: 2
Fore
SplineSet
256 896 m 1,0,-1
 256 768 l 1,1,-1
 640 768 l 1,2,-1
 640 896 l 1,3,-1
 256 896 l 1,0,-1
640 768 m 1,4,-1
 640 640 l 1,5,-1
 384 640 l 1,6,-1
 384 512 l 1,7,-1
 384 384 l 1,8,-1
 384 256 l 1,9,-1
 640 256 l 1,10,-1
 768 256 l 1,11,-1
 768 768 l 1,12,-1
 640 768 l 1,4,-1
256 768 m 1,13,-1
 128 768 l 1,14,-1
 128 128 l 1,15,-1
 256 128 l 1,16,-1
 256 768 l 1,13,-1
256 128 m 1,17,-1
 256 0 l 1,18,-1
 640 0 l 1,19,-1
 640 128 l 1,20,-1
 256 128 l 1,17,-1
512 512 m 1,21,-1
 640 512 l 1,22,-1
 640 384 l 1,23,-1
 512 384 l 1,24,-1
 512 512 l 1,21,-1
EndSplineSet
Validated: 5
EndChar

StartChar: a majuscule
Encoding: 65 65 68
Width: 1024
GlyphClass: 2
Flags: W
LayerCount: 2
Fore
SplineSet
256 896 m 1,0,-1
 256 768 l 1,1,-1
 640 768 l 1,2,-1
 640 896 l 1,3,-1
 256 896 l 1,0,-1
640 768 m 1,4,-1
 640 384 l 1,5,-1
 256 384 l 1,6,-1
 256 768 l 1,7,-1
 128 768 l 1,8,-1
 128 0 l 1,9,-1
 256 0 l 1,10,-1
 256 256 l 1,11,-1
 640 256 l 1,12,-1
 640 0 l 1,13,-1
 768 0 l 1,14,-1
 768 768 l 1,15,-1
 640 768 l 1,4,-1
EndSplineSet
Validated: 517
EndChar

StartChar: b majuscule
Encoding: 66 66 69
Width: 1024
GlyphClass: 2
Flags: W
LayerCount: 2
Fore
SplineSet
128 896 m 1,0,-1
 128 0 l 1,1,-1
 256 0 l 1,2,-1
 640 0 l 1,3,-1
 640 128 l 1,4,-1
 256 128 l 1,5,-1
 256 384 l 1,6,-1
 640 384 l 1,7,-1
 640 512 l 1,8,-1
 256 512 l 1,9,-1
 256 768 l 1,10,-1
 640 768 l 1,11,-1
 640 896 l 1,12,-1
 256 896 l 1,13,-1
 128 896 l 1,0,-1
640 768 m 1,14,-1
 640 512 l 1,15,-1
 768 512 l 1,16,-1
 768 768 l 1,17,-1
 640 768 l 1,14,-1
640 384 m 1,18,-1
 640 128 l 1,19,-1
 768 128 l 1,20,-1
 768 384 l 1,21,-1
 640 384 l 1,18,-1
EndSplineSet
Validated: 517
EndChar

StartChar: c majuscule
Encoding: 67 67 70
Width: 1024
GlyphClass: 2
Flags: W
LayerCount: 2
Fore
SplineSet
256 896 m 1,0,-1
 256 768 l 1,1,-1
 640 768 l 1,2,-1
 640 896 l 1,3,-1
 256 896 l 1,0,-1
640 768 m 1,4,-1
 640 640 l 1,5,-1
 768 640 l 1,6,-1
 768 768 l 1,7,-1
 640 768 l 1,4,-1
256 768 m 1,8,-1
 128 768 l 1,9,-1
 128 128 l 1,10,-1
 256 128 l 1,11,-1
 256 768 l 1,8,-1
256 128 m 1,12,-1
 256 0 l 1,13,-1
 640 0 l 1,14,-1
 640 128 l 1,15,-1
 256 128 l 1,12,-1
640 128 m 1,16,-1
 768 128 l 1,17,-1
 768 256 l 1,18,-1
 640 256 l 1,19,-1
 640 128 l 1,16,-1
EndSplineSet
Validated: 517
EndChar

StartChar: d majuscule
Encoding: 68 68 71
Width: 1024
GlyphClass: 2
Flags: W
LayerCount: 2
Fore
SplineSet
128 896 m 1,0,-1
 128 0 l 1,1,-1
 256 0 l 1,2,-1
 640 0 l 1,3,-1
 640 128 l 1,4,-1
 256 128 l 1,5,-1
 256 768 l 1,6,-1
 640 768 l 1,7,-1
 640 896 l 1,8,-1
 256 896 l 1,9,-1
 128 896 l 1,0,-1
640 768 m 1,10,-1
 640 128 l 1,11,-1
 768 128 l 1,12,-1
 768 768 l 1,13,-1
 640 768 l 1,10,-1
EndSplineSet
Validated: 517
EndChar

StartChar: e majuscule
Encoding: 69 69 72
Width: 1024
GlyphClass: 2
Flags: W
LayerCount: 2
Fore
SplineSet
128 896 m 1,0,-1
 128 768 l 1,1,-1
 128 128 l 1,2,-1
 128 0 l 1,3,-1
 768 0 l 1,4,-1
 768 128 l 1,5,-1
 256 128 l 1,6,-1
 256 384 l 1,7,-1
 512 384 l 1,8,-1
 512 512 l 1,9,-1
 256 512 l 1,10,-1
 256 768 l 1,11,-1
 768 768 l 1,12,-1
 768 896 l 1,13,-1
 128 896 l 1,0,-1
EndSplineSet
Validated: 521
EndChar

StartChar: f majuscule
Encoding: 70 70 73
Width: 1024
GlyphClass: 2
Flags: W
LayerCount: 2
Fore
SplineSet
128 896 m 1,0,-1
 128 768 l 1,1,-1
 128 0 l 1,2,-1
 256 0 l 1,3,-1
 256 384 l 1,4,-1
 512 384 l 1,5,-1
 512 512 l 1,6,-1
 256 512 l 1,7,-1
 256 768 l 1,8,-1
 768 768 l 1,9,-1
 768 896 l 1,10,-1
 128 896 l 1,0,-1
EndSplineSet
Validated: 521
EndChar

StartChar: g majuscule
Encoding: 71 71 74
Width: 1024
GlyphClass: 2
Flags: W
LayerCount: 2
Fore
SplineSet
256 896 m 1,0,-1
 256 768 l 1,1,-1
 640 768 l 1,2,-1
 640 896 l 1,3,-1
 256 896 l 1,0,-1
640 768 m 1,4,-1
 640 640 l 1,5,-1
 768 640 l 1,6,-1
 768 768 l 1,7,-1
 640 768 l 1,4,-1
256 768 m 1,8,-1
 128 768 l 1,9,-1
 128 128 l 1,10,-1
 256 128 l 1,11,-1
 256 768 l 1,8,-1
256 128 m 1,12,-1
 256 0 l 1,13,-1
 768 0 l 1,14,-1
 768 128 l 1,15,-1
 768 256 l 1,16,-1
 768 384 l 1,17,-1
 512 384 l 1,18,-1
 512 256 l 1,19,-1
 640 256 l 1,20,-1
 640 128 l 1,21,-1
 256 128 l 1,12,-1
EndSplineSet
Validated: 517
EndChar

StartChar: h majuscule
Encoding: 72 72 75
Width: 1024
GlyphClass: 2
Flags: W
LayerCount: 2
Fore
SplineSet
128 896 m 1,0,-1
 128 0 l 1,1,-1
 256 0 l 1,2,-1
 256 384 l 1,3,-1
 640 384 l 1,4,-1
 640 0 l 1,5,-1
 768 0 l 1,6,-1
 768 896 l 1,7,-1
 640 896 l 1,8,-1
 640 512 l 1,9,-1
 256 512 l 1,10,-1
 256 896 l 1,11,-1
 128 896 l 1,0,-1
EndSplineSet
Validated: 521
EndChar

StartChar: i majuscule
Encoding: 73 73 76
Width: 1024
GlyphClass: 2
Flags: W
LayerCount: 2
Fore
SplineSet
256 896 m 1,0,-1
 256 768 l 1,1,-1
 384 768 l 1,2,-1
 384 128 l 1,3,-1
 256 128 l 1,4,-1
 256 0 l 1,5,-1
 640 0 l 1,6,-1
 640 128 l 1,7,-1
 512 128 l 1,8,-1
 512 768 l 1,9,-1
 640 768 l 1,10,-1
 640 896 l 1,11,-1
 256 896 l 1,0,-1
EndSplineSet
Validated: 521
EndChar

StartChar: j majuscule
Encoding: 74 74 77
Width: 1024
GlyphClass: 2
Flags: W
LayerCount: 2
Fore
SplineSet
384 896 m 1,0,-1
 384 768 l 1,1,-1
 512 768 l 1,2,-1
 512 128 l 1,3,-1
 640 128 l 1,4,-1
 640 768 l 1,5,-1
 768 768 l 1,6,-1
 768 896 l 1,7,-1
 384 896 l 1,0,-1
512 128 m 1,8,-1
 256 128 l 1,9,-1
 256 0 l 1,10,-1
 512 0 l 1,11,-1
 512 128 l 1,8,-1
256 128 m 1,12,-1
 256 256 l 1,13,-1
 128 256 l 1,14,-1
 128 128 l 1,15,-1
 256 128 l 1,12,-1
EndSplineSet
Validated: 517
EndChar

StartChar: k majuscule
Encoding: 75 75 78
Width: 1024
GlyphClass: 2
Flags: W
LayerCount: 2
Fore
SplineSet
128 896 m 1,0,-1
 128 0 l 1,1,-1
 256 0 l 1,2,-1
 256 384 l 1,3,-1
 384 384 l 1,4,-1
 384 512 l 1,5,-1
 256 512 l 1,6,-1
 256 896 l 1,7,-1
 128 896 l 1,0,-1
384 512 m 1,8,-1
 512 512 l 1,9,-1
 512 640 l 1,10,-1
 384 640 l 1,11,-1
 384 512 l 1,8,-1
512 640 m 1,12,-1
 640 640 l 1,13,-1
 640 768 l 1,14,-1
 512 768 l 1,15,-1
 512 640 l 1,12,-1
640 768 m 1,16,-1
 768 768 l 1,17,-1
 768 896 l 1,18,-1
 640 896 l 1,19,-1
 640 768 l 1,16,-1
384 384 m 1,20,-1
 384 256 l 1,21,-1
 512 256 l 1,22,-1
 512 384 l 1,23,-1
 384 384 l 1,20,-1
512 256 m 1,24,-1
 512 128 l 1,25,-1
 640 128 l 1,26,-1
 640 256 l 1,27,-1
 512 256 l 1,24,-1
640 128 m 1,28,-1
 640 0 l 1,29,-1
 768 0 l 1,30,-1
 768 128 l 1,31,-1
 640 128 l 1,28,-1
EndSplineSet
Validated: 517
EndChar

StartChar: l majuscule
Encoding: 76 76 79
Width: 1024
GlyphClass: 2
Flags: W
LayerCount: 2
Fore
SplineSet
128 896 m 1,0,-1
 128 0 l 1,1,-1
 256 0 l 1,2,-1
 768 0 l 1,3,-1
 768 128 l 1,4,-1
 256 128 l 1,5,-1
 256 896 l 1,6,-1
 128 896 l 1,0,-1
EndSplineSet
Validated: 521
EndChar

StartChar: m majuscule
Encoding: 77 77 80
Width: 1024
GlyphClass: 2
Flags: W
LayerCount: 2
Fore
SplineSet
128 896 m 1,0,-1
 128 0 l 1,1,-1
 256 0 l 1,2,-1
 256 640 l 1,3,-1
 384 640 l 1,4,-1
 384 768 l 1,5,-1
 256 768 l 1,6,-1
 256 896 l 1,7,-1
 128 896 l 1,0,-1
384 640 m 1,8,-1
 384 512 l 1,9,-1
 512 512 l 1,10,-1
 512 640 l 1,11,-1
 384 640 l 1,8,-1
512 640 m 1,12,-1
 640 640 l 1,13,-1
 640 0 l 1,14,-1
 768 0 l 1,15,-1
 768 896 l 1,16,-1
 640 896 l 1,17,-1
 640 768 l 1,18,-1
 512 768 l 1,19,-1
 512 640 l 1,12,-1
EndSplineSet
Validated: 517
EndChar

StartChar: n majuscule
Encoding: 78 78 81
Width: 1024
GlyphClass: 2
Flags: W
LayerCount: 2
Fore
SplineSet
128 896 m 1,0,-1
 128 0 l 1,1,-1
 256 0 l 1,2,-1
 256 512 l 1,3,-1
 384 512 l 1,4,-1
 384 640 l 1,5,-1
 256 640 l 1,6,-1
 256 896 l 1,7,-1
 128 896 l 1,0,-1
384 512 m 1,8,-1
 384 384 l 1,9,-1
 512 384 l 1,10,-1
 512 512 l 1,11,-1
 384 512 l 1,8,-1
512 384 m 1,12,-1
 512 256 l 1,13,-1
 640 256 l 1,14,-1
 640 0 l 1,15,-1
 768 0 l 1,16,-1
 768 896 l 1,17,-1
 640 896 l 1,18,-1
 640 384 l 1,19,-1
 512 384 l 1,12,-1
EndSplineSet
Validated: 517
EndChar

StartChar: o majuscule
Encoding: 79 79 82
Width: 1024
GlyphClass: 2
Flags: W
LayerCount: 2
Fore
SplineSet
256 896 m 1,0,-1
 256 768 l 1,1,-1
 640 768 l 1,2,-1
 640 896 l 1,3,-1
 256 896 l 1,0,-1
640 768 m 1,4,-1
 640 128 l 1,5,-1
 768 128 l 1,6,-1
 768 768 l 1,7,-1
 640 768 l 1,4,-1
640 128 m 1,8,-1
 256 128 l 1,9,-1
 256 0 l 1,10,-1
 640 0 l 1,11,-1
 640 128 l 1,8,-1
256 128 m 1,12,-1
 256 768 l 1,13,-1
 128 768 l 1,14,-1
 128 128 l 1,15,-1
 256 128 l 1,12,-1
EndSplineSet
Validated: 517
EndChar

StartChar: p majuscule
Encoding: 80 80 83
Width: 1024
GlyphClass: 2
Flags: W
LayerCount: 2
Fore
SplineSet
128 896 m 1,0,-1
 128 0 l 1,1,-1
 256 0 l 1,2,-1
 256 384 l 1,3,-1
 640 384 l 1,4,-1
 640 512 l 1,5,-1
 256 512 l 1,6,-1
 256 768 l 1,7,-1
 640 768 l 1,8,-1
 640 896 l 1,9,-1
 256 896 l 1,10,-1
 128 896 l 1,0,-1
640 768 m 1,11,-1
 640 512 l 1,12,-1
 768 512 l 1,13,-1
 768 768 l 1,14,-1
 640 768 l 1,11,-1
EndSplineSet
Validated: 517
EndChar

StartChar: q majuscule
Encoding: 81 81 84
Width: 1024
GlyphClass: 2
Flags: W
LayerCount: 2
Fore
SplineSet
256 896 m 1,0,-1
 256 768 l 1,1,-1
 640 768 l 1,2,-1
 640 896 l 1,3,-1
 256 896 l 1,0,-1
640 768 m 1,4,-1
 640 256 l 1,5,-1
 768 256 l 1,6,-1
 768 768 l 1,7,-1
 640 768 l 1,4,-1
640 256 m 1,8,-1
 512 256 l 1,9,-1
 512 128 l 1,10,-1
 640 128 l 1,11,-1
 640 256 l 1,8,-1
640 128 m 1,12,-1
 640 0 l 1,13,-1
 768 0 l 1,14,-1
 768 128 l 1,15,-1
 640 128 l 1,12,-1
512 128 m 1,16,-1
 256 128 l 1,17,-1
 256 0 l 1,18,-1
 512 0 l 1,19,-1
 512 128 l 1,16,-1
256 128 m 1,20,-1
 256 768 l 1,21,-1
 128 768 l 1,22,-1
 128 128 l 1,23,-1
 256 128 l 1,20,-1
512 256 m 1,24,-1
 512 384 l 1,25,-1
 384 384 l 1,26,-1
 384 256 l 1,27,-1
 512 256 l 1,24,-1
EndSplineSet
Validated: 517
EndChar

StartChar: r majuscule
Encoding: 82 82 85
Width: 1024
GlyphClass: 2
Flags: W
LayerCount: 2
Fore
SplineSet
128 896 m 1,0,-1
 128 0 l 1,1,-1
 256 0 l 1,2,-1
 256 384 l 1,3,-1
 384 384 l 1,4,-1
 384 256 l 1,5,-1
 512 256 l 1,6,-1
 512 384 l 1,7,-1
 640 384 l 1,8,-1
 640 512 l 1,9,-1
 256 512 l 1,10,-1
 256 768 l 1,11,-1
 640 768 l 1,12,-1
 640 896 l 1,13,-1
 256 896 l 1,14,-1
 128 896 l 1,0,-1
640 768 m 1,15,-1
 640 512 l 1,16,-1
 768 512 l 1,17,-1
 768 768 l 1,18,-1
 640 768 l 1,15,-1
512 256 m 1,19,-1
 512 128 l 1,20,-1
 640 128 l 1,21,-1
 640 256 l 1,22,-1
 512 256 l 1,19,-1
640 128 m 1,23,-1
 640 0 l 1,24,-1
 768 0 l 1,25,-1
 768 128 l 1,26,-1
 640 128 l 1,23,-1
EndSplineSet
Validated: 517
EndChar

StartChar: s majuscule
Encoding: 83 83 86
Width: 1024
GlyphClass: 2
Flags: W
LayerCount: 2
Fore
SplineSet
256 896 m 1,0,-1
 256 768 l 1,1,-1
 640 768 l 1,2,-1
 640 896 l 1,3,-1
 256 896 l 1,0,-1
640 768 m 1,4,-1
 640 640 l 1,5,-1
 768 640 l 1,6,-1
 768 768 l 1,7,-1
 640 768 l 1,4,-1
256 768 m 1,8,-1
 128 768 l 1,9,-1
 128 512 l 1,10,-1
 256 512 l 1,11,-1
 256 768 l 1,8,-1
256 512 m 1,12,-1
 256 384 l 1,13,-1
 640 384 l 1,14,-1
 640 512 l 1,15,-1
 256 512 l 1,12,-1
640 384 m 1,16,-1
 640 128 l 1,17,-1
 768 128 l 1,18,-1
 768 384 l 1,19,-1
 640 384 l 1,16,-1
640 128 m 1,20,-1
 256 128 l 1,21,-1
 256 0 l 1,22,-1
 640 0 l 1,23,-1
 640 128 l 1,20,-1
256 128 m 1,24,-1
 256 256 l 1,25,-1
 128 256 l 1,26,-1
 128 128 l 1,27,-1
 256 128 l 1,24,-1
EndSplineSet
Validated: 517
EndChar

StartChar: t majuscule
Encoding: 84 84 87
Width: 1024
GlyphClass: 2
Flags: W
LayerCount: 2
Fore
SplineSet
128 896 m 1,0,-1
 128 768 l 1,1,-1
 384 768 l 1,2,-1
 384 0 l 1,3,-1
 512 0 l 1,4,-1
 512 768 l 1,5,-1
 768 768 l 1,6,-1
 768 896 l 1,7,-1
 128 896 l 1,0,-1
EndSplineSet
Validated: 521
EndChar

StartChar: u majuscule
Encoding: 85 85 88
Width: 1024
GlyphClass: 2
Flags: W
LayerCount: 2
Fore
SplineSet
128 896 m 1,0,-1
 128 128 l 1,1,-1
 256 128 l 1,2,-1
 256 896 l 1,3,-1
 128 896 l 1,0,-1
256 128 m 1,4,-1
 256 0 l 1,5,-1
 640 0 l 1,6,-1
 640 128 l 1,7,-1
 256 128 l 1,4,-1
640 128 m 1,8,-1
 768 128 l 1,9,-1
 768 896 l 1,10,-1
 640 896 l 1,11,-1
 640 128 l 1,8,-1
EndSplineSet
Validated: 517
EndChar

StartChar: v majuscule
Encoding: 86 86 89
Width: 1024
GlyphClass: 2
Flags: W
LayerCount: 2
Fore
SplineSet
128 896 m 1,0,-1
 128 512 l 1,1,-1
 256 512 l 1,2,-1
 256 896 l 1,3,-1
 128 896 l 1,0,-1
256 512 m 1,4,-1
 256 256 l 1,5,-1
 384 256 l 1,6,-1
 384 512 l 1,7,-1
 256 512 l 1,4,-1
384 256 m 1,8,-1
 384 0 l 1,9,-1
 512 0 l 1,10,-1
 512 256 l 1,11,-1
 384 256 l 1,8,-1
512 256 m 1,12,-1
 640 256 l 1,13,-1
 640 512 l 1,14,-1
 512 512 l 1,15,-1
 512 256 l 1,12,-1
640 512 m 1,16,-1
 768 512 l 1,17,-1
 768 896 l 1,18,-1
 640 896 l 1,19,-1
 640 512 l 1,16,-1
EndSplineSet
Validated: 517
EndChar

StartChar: w majuscule
Encoding: 87 87 90
Width: 1024
GlyphClass: 2
Flags: W
LayerCount: 2
Fore
SplineSet
128 896 m 1,0,-1
 128 128 l 1,1,-1
 256 128 l 1,2,-1
 256 896 l 1,3,-1
 128 896 l 1,0,-1
256 128 m 1,4,-1
 256 0 l 1,5,-1
 384 0 l 1,6,-1
 384 128 l 1,7,-1
 256 128 l 1,4,-1
384 128 m 1,8,-1
 512 128 l 1,9,-1
 512 512 l 1,10,-1
 384 512 l 1,11,-1
 384 128 l 1,8,-1
512 128 m 1,12,-1
 512 0 l 1,13,-1
 640 0 l 1,14,-1
 640 128 l 1,15,-1
 512 128 l 1,12,-1
640 128 m 1,16,-1
 768 128 l 1,17,-1
 768 896 l 1,18,-1
 640 896 l 1,19,-1
 640 128 l 1,16,-1
EndSplineSet
Validated: 517
EndChar

StartChar: x majuscule
Encoding: 88 88 91
Width: 1024
GlyphClass: 2
Flags: W
LayerCount: 2
Fore
SplineSet
128 896 m 1,0,-1
 128 640 l 1,1,-1
 256 640 l 1,2,-1
 256 896 l 1,3,-1
 128 896 l 1,0,-1
256 640 m 1,4,-1
 256 512 l 1,5,-1
 384 512 l 1,6,-1
 384 640 l 1,7,-1
 256 640 l 1,4,-1
384 512 m 1,8,-1
 384 384 l 1,9,-1
 512 384 l 1,10,-1
 512 512 l 1,11,-1
 384 512 l 1,8,-1
512 512 m 1,12,-1
 640 512 l 1,13,-1
 640 640 l 1,14,-1
 512 640 l 1,15,-1
 512 512 l 1,12,-1
640 640 m 1,16,-1
 768 640 l 1,17,-1
 768 896 l 1,18,-1
 640 896 l 1,19,-1
 640 640 l 1,16,-1
512 384 m 1,20,-1
 512 256 l 1,21,-1
 640 256 l 1,22,-1
 640 384 l 1,23,-1
 512 384 l 1,20,-1
640 256 m 1,24,-1
 640 0 l 1,25,-1
 768 0 l 1,26,-1
 768 256 l 1,27,-1
 640 256 l 1,24,-1
384 384 m 1,28,-1
 256 384 l 1,29,-1
 256 256 l 1,30,-1
 384 256 l 1,31,-1
 384 384 l 1,28,-1
256 256 m 1,32,-1
 128 256 l 1,33,-1
 128 0 l 1,34,-1
 256 0 l 1,35,-1
 256 256 l 1,32,-1
EndSplineSet
Validated: 517
EndChar

StartChar: y majuscule
Encoding: 89 89 92
Width: 1024
GlyphClass: 2
Flags: W
LayerCount: 2
Fore
SplineSet
128 896 m 1,0,-1
 128 640 l 1,1,-1
 256 640 l 1,2,-1
 256 896 l 1,3,-1
 128 896 l 1,0,-1
256 640 m 1,4,-1
 256 512 l 1,5,-1
 384 512 l 1,6,-1
 384 640 l 1,7,-1
 256 640 l 1,4,-1
384 512 m 1,8,-1
 384 0 l 1,9,-1
 512 0 l 1,10,-1
 512 512 l 1,11,-1
 384 512 l 1,8,-1
512 512 m 1,12,-1
 640 512 l 1,13,-1
 640 640 l 1,14,-1
 512 640 l 1,15,-1
 512 512 l 1,12,-1
640 640 m 1,16,-1
 768 640 l 1,17,-1
 768 896 l 1,18,-1
 640 896 l 1,19,-1
 640 640 l 1,16,-1
EndSplineSet
Validated: 517
EndChar

StartChar: z majuscule
Encoding: 90 90 93
Width: 1024
GlyphClass: 2
Flags: W
LayerCount: 2
Fore
SplineSet
128 896 m 1,0,-1
 128 768 l 1,1,-1
 640 768 l 1,2,-1
 640 640 l 1,3,-1
 768 640 l 1,4,-1
 768 768 l 1,5,-1
 768 896 l 1,6,-1
 128 896 l 1,0,-1
640 640 m 1,7,-1
 512 640 l 1,8,-1
 512 512 l 1,9,-1
 640 512 l 1,10,-1
 640 640 l 1,7,-1
512 512 m 1,11,-1
 384 512 l 1,12,-1
 384 384 l 1,13,-1
 512 384 l 1,14,-1
 512 512 l 1,11,-1
384 384 m 1,15,-1
 256 384 l 1,16,-1
 256 256 l 1,17,-1
 384 256 l 1,18,-1
 384 384 l 1,15,-1
256 256 m 1,19,-1
 128 256 l 1,20,-1
 128 128 l 1,21,-1
 128 0 l 1,22,-1
 768 0 l 1,23,-1
 768 128 l 1,24,-1
 256 128 l 1,25,-1
 256 256 l 1,19,-1
EndSplineSet
Validated: 517
EndChar

StartChar: crochet ouvrant
Encoding: 91 91 94
Width: 1024
GlyphClass: 2
Flags: W
LayerCount: 2
Fore
SplineSet
384 896 m 1,0,-1
 384 768 l 1,1,-1
 384 128 l 1,2,-1
 384 0 l 1,3,-1
 768 0 l 1,4,-1
 768 128 l 1,5,-1
 512 128 l 1,6,-1
 512 768 l 1,7,-1
 768 768 l 1,8,-1
 768 896 l 1,9,-1
 384 896 l 1,0,-1
EndSplineSet
Validated: 521
EndChar

StartChar: anti slash
Encoding: 92 92 95
Width: 1024
GlyphClass: 2
Flags: W
LayerCount: 2
Fore
SplineSet
0 1024 m 1,0,-1
 0 896 l 1,1,-1
 128 896 l 1,2,-1
 128 1024 l 1,3,-1
 0 1024 l 1,0,-1
128 896 m 1,4,-1
 128 640 l 1,5,-1
 256 640 l 1,6,-1
 256 896 l 1,7,-1
 128 896 l 1,4,-1
256 640 m 1,8,-1
 256 512 l 1,9,-1
 384 512 l 1,10,-1
 384 640 l 1,11,-1
 256 640 l 1,8,-1
384 512 m 1,12,-1
 384 384 l 1,13,-1
 512 384 l 1,14,-1
 512 512 l 1,15,-1
 384 512 l 1,12,-1
512 384 m 1,16,-1
 512 256 l 1,17,-1
 640 256 l 1,18,-1
 640 384 l 1,19,-1
 512 384 l 1,16,-1
640 256 m 1,20,-1
 640 0 l 1,21,-1
 768 0 l 1,22,-1
 768 256 l 1,23,-1
 640 256 l 1,20,-1
768 0 m 1,24,-1
 768 -128 l 1,25,-1
 896 -128 l 1,26,-1
 896 0 l 1,27,-1
 768 0 l 1,24,-1
896 -128 m 1,28,-1
 896 -256 l 1,29,-1
 1024 -256 l 1,30,-1
 1024 -128 l 1,31,-1
 896 -128 l 1,28,-1
EndSplineSet
Validated: 517
EndChar

StartChar: crochet fermant
Encoding: 93 93 96
Width: 1024
GlyphClass: 2
Flags: W
LayerCount: 2
Fore
SplineSet
256 896 m 1,0,-1
 256 768 l 1,1,-1
 512 768 l 1,2,-1
 512 128 l 1,3,-1
 256 128 l 1,4,-1
 256 0 l 1,5,-1
 640 0 l 1,6,-1
 640 128 l 1,7,-1
 640 768 l 1,8,-1
 640 896 l 1,9,-1
 256 896 l 1,0,-1
EndSplineSet
Validated: 521
EndChar

StartChar: fleche haut
Encoding: 8593 8593 97
Width: 1024
GlyphClass: 2
Flags: W
LayerCount: 2
Fore
SplineSet
384 896 m 1,0,-1
 384 768 l 1,1,-1
 256 768 l 1,2,-1
 256 640 l 1,3,-1
 384 640 l 1,4,-1
 384 -256 l 1,5,-1
 512 -256 l 1,6,-1
 512 640 l 1,7,-1
 640 640 l 1,8,-1
 640 768 l 1,9,-1
 512 768 l 1,10,-1
 512 896 l 1,11,-1
 384 896 l 1,0,-1
640 640 m 1,12,-1
 640 512 l 1,13,-1
 768 512 l 1,14,-1
 768 640 l 1,15,-1
 640 640 l 1,12,-1
256 640 m 1,16,-1
 128 640 l 1,17,-1
 128 512 l 1,18,-1
 256 512 l 1,19,-1
 256 640 l 1,16,-1
EndSplineSet
Validated: 517
EndChar

StartChar: accent circonflexe
Encoding: 94 94 98
Width: 1024
GlyphClass: 2
Flags: W
LayerCount: 2
Fore
SplineSet
384 896 m 1,0,-1
 384 768 l 1,1,-1
 256 768 l 1,2,-1
 256 640 l 1,3,-1
 384 640 l 1,4,-1
 384 -256 l 1,5,-1
 512 -256 l 1,6,-1
 512 640 l 1,7,-1
 640 640 l 1,8,-1
 640 768 l 1,9,-1
 512 768 l 1,10,-1
 512 896 l 1,11,-1
 384 896 l 1,0,-1
640 640 m 1,12,-1
 640 512 l 1,13,-1
 768 512 l 1,14,-1
 768 640 l 1,15,-1
 640 640 l 1,12,-1
256 640 m 1,16,-1
 128 640 l 1,17,-1
 128 512 l 1,18,-1
 256 512 l 1,19,-1
 256 640 l 1,16,-1
EndSplineSet
Validated: 517
EndChar

StartChar: souligne
Encoding: 95 95 99
Width: 1024
GlyphClass: 2
Flags: W
LayerCount: 2
Fore
SplineSet
0 -128 m 1,0,-1
 0 -256 l 1,1,-1
 1024 -256 l 1,2,-1
 1024 -128 l 1,3,-1
 0 -128 l 1,0,-1
EndSplineSet
Validated: 9
EndChar

StartChar: grand moins
Encoding: 8722 8722 100
Width: 1024
GlyphClass: 2
Flags: W
LayerCount: 2
Fore
SplineSet
0 512 m 1,0,-1
 0 384 l 1,1,-1
 1024 384 l 1,2,-1
 1024 512 l 1,3,-1
 0 512 l 1,0,-1
EndSplineSet
Validated: 521
EndChar

StartChar: a minuscule
Encoding: 97 97 101
Width: 1024
GlyphClass: 2
Flags: W
LayerCount: 2
Fore
SplineSet
256 640 m 1,0,-1
 256 512 l 1,1,-1
 512 512 l 1,2,-1
 512 640 l 1,3,-1
 256 640 l 1,0,-1
512 512 m 1,4,-1
 512 384 l 1,5,-1
 640 384 l 1,6,-1
 640 256 l 1,7,-1
 512 256 l 1,8,-1
 512 128 l 1,9,-1
 640 128 l 1,10,-1
 640 0 l 1,11,-1
 768 0 l 1,12,-1
 768 640 l 1,13,-1
 640 640 l 1,14,-1
 640 512 l 1,15,-1
 512 512 l 1,4,-1
512 128 m 1,16,-1
 256 128 l 1,17,-1
 256 0 l 1,18,-1
 512 0 l 1,19,-1
 512 128 l 1,16,-1
256 128 m 1,20,-1
 256 512 l 1,21,-1
 128 512 l 1,22,-1
 128 128 l 1,23,-1
 256 128 l 1,20,-1
EndSplineSet
Validated: 517
EndChar

StartChar: b minuscule
Encoding: 98 98 102
Width: 1024
GlyphClass: 2
Flags: W
LayerCount: 2
Fore
SplineSet
128 896 m 1,0,-1
 128 0 l 1,1,-1
 256 0 l 1,2,-1
 640 0 l 1,3,-1
 640 128 l 1,4,-1
 256 128 l 1,5,-1
 256 512 l 1,6,-1
 640 512 l 1,7,-1
 640 640 l 1,8,-1
 256 640 l 1,9,-1
 256 896 l 1,10,-1
 128 896 l 1,0,-1
640 512 m 1,11,-1
 640 128 l 1,12,-1
 768 128 l 1,13,-1
 768 512 l 1,14,-1
 640 512 l 1,11,-1
EndSplineSet
Validated: 517
EndChar

StartChar: c minuscule
Encoding: 99 99 103
Width: 1024
GlyphClass: 2
Flags: W
LayerCount: 2
Fore
SplineSet
256 640 m 1,0,-1
 256 512 l 1,1,-1
 640 512 l 1,2,-1
 640 640 l 1,3,-1
 256 640 l 1,0,-1
256 512 m 1,4,-1
 128 512 l 1,5,-1
 128 128 l 1,6,-1
 256 128 l 1,7,-1
 256 512 l 1,4,-1
256 128 m 1,8,-1
 256 0 l 1,9,-1
 640 0 l 1,10,-1
 640 128 l 1,11,-1
 256 128 l 1,8,-1
EndSplineSet
Validated: 517
EndChar

StartChar: d minuscule
Encoding: 100 100 104
Width: 1024
GlyphClass: 2
Flags: W
LayerCount: 2
Fore
SplineSet
640 896 m 1,0,-1
 640 640 l 1,1,-1
 256 640 l 1,2,-1
 256 512 l 1,3,-1
 640 512 l 1,4,-1
 640 128 l 1,5,-1
 256 128 l 1,6,-1
 256 0 l 1,7,-1
 640 0 l 1,8,-1
 768 0 l 1,9,-1
 768 896 l 1,10,-1
 640 896 l 1,0,-1
256 128 m 1,11,-1
 256 512 l 1,12,-1
 128 512 l 1,13,-1
 128 128 l 1,14,-1
 256 128 l 1,11,-1
EndSplineSet
Validated: 517
EndChar

StartChar: e minuscule
Encoding: 101 101 105
Width: 1024
GlyphClass: 2
Flags: W
LayerCount: 2
Fore
SplineSet
256 640 m 1,0,-1
 256 512 l 1,1,-1
 640 512 l 1,2,-1
 640 640 l 1,3,-1
 256 640 l 1,0,-1
640 512 m 1,4,-1
 640 384 l 1,5,-1
 256 384 l 1,6,-1
 256 512 l 1,7,-1
 128 512 l 1,8,-1
 128 384 l 1,9,-1
 128 256 l 1,10,-1
 128 128 l 1,11,-1
 256 128 l 1,12,-1
 256 256 l 1,13,-1
 768 256 l 1,14,-1
 768 384 l 1,15,-1
 768 512 l 1,16,-1
 640 512 l 1,4,-1
256 128 m 1,17,-1
 256 0 l 1,18,-1
 640 0 l 1,19,-1
 640 128 l 1,20,-1
 256 128 l 1,17,-1
EndSplineSet
Validated: 517
EndChar

StartChar: f minuscule
Encoding: 102 102 106
Width: 1024
GlyphClass: 2
Flags: W
LayerCount: 2
Fore
SplineSet
384 896 m 1,0,-1
 384 768 l 1,1,-1
 640 768 l 1,2,-1
 640 896 l 1,3,-1
 384 896 l 1,0,-1
640 768 m 1,4,-1
 640 640 l 1,5,-1
 768 640 l 1,6,-1
 768 768 l 1,7,-1
 640 768 l 1,4,-1
384 768 m 1,8,-1
 256 768 l 1,9,-1
 256 512 l 1,10,-1
 128 512 l 1,11,-1
 128 384 l 1,12,-1
 256 384 l 1,13,-1
 256 0 l 1,14,-1
 384 0 l 1,15,-1
 384 384 l 1,16,-1
 512 384 l 1,17,-1
 512 512 l 1,18,-1
 384 512 l 1,19,-1
 384 768 l 1,8,-1
EndSplineSet
Validated: 517
EndChar

StartChar: g minuscule
Encoding: 103 103 107
Width: 1024
GlyphClass: 2
Flags: W
LayerCount: 2
Fore
SplineSet
256 640 m 1,0,-1
 256 512 l 1,1,-1
 640 512 l 1,2,-1
 640 256 l 1,3,-1
 256 256 l 1,4,-1
 256 128 l 1,5,-1
 640 128 l 1,6,-1
 640 -128 l 1,7,-1
 768 -128 l 1,8,-1
 768 640 l 1,9,-1
 640 640 l 1,10,-1
 256 640 l 1,0,-1
640 -128 m 1,11,-1
 384 -128 l 1,12,-1
 384 -256 l 1,13,-1
 640 -256 l 1,14,-1
 640 -128 l 1,11,-1
384 -128 m 1,15,-1
 384 0 l 1,16,-1
 256 0 l 1,17,-1
 256 -128 l 1,18,-1
 384 -128 l 1,15,-1
256 256 m 1,19,-1
 256 512 l 1,20,-1
 128 512 l 1,21,-1
 128 256 l 1,22,-1
 256 256 l 1,19,-1
EndSplineSet
Validated: 517
EndChar

StartChar: h minuscule
Encoding: 104 104 108
Width: 1024
GlyphClass: 2
Flags: W
LayerCount: 2
Fore
SplineSet
128 896 m 1,0,-1
 128 0 l 1,1,-1
 256 0 l 1,2,-1
 256 384 l 1,3,-1
 384 384 l 1,4,-1
 384 512 l 1,5,-1
 256 512 l 1,6,-1
 256 896 l 1,7,-1
 128 896 l 1,0,-1
384 512 m 1,8,-1
 640 512 l 1,9,-1
 640 640 l 1,10,-1
 384 640 l 1,11,-1
 384 512 l 1,8,-1
640 512 m 1,12,-1
 640 0 l 1,13,-1
 768 0 l 1,14,-1
 768 512 l 1,15,-1
 640 512 l 1,12,-1
EndSplineSet
Validated: 517
EndChar

StartChar: i minuscule
Encoding: 105 105 109
Width: 1024
GlyphClass: 2
Flags: W
LayerCount: 2
Fore
SplineSet
384 896 m 1,0,-1
 384 768 l 1,1,-1
 512 768 l 1,2,-1
 512 896 l 1,3,-1
 384 896 l 1,0,-1
256 640 m 1,4,-1
 256 512 l 1,5,-1
 384 512 l 1,6,-1
 384 128 l 1,7,-1
 256 128 l 1,8,-1
 256 0 l 1,9,-1
 640 0 l 1,10,-1
 640 128 l 1,11,-1
 512 128 l 1,12,-1
 512 640 l 1,13,-1
 384 640 l 1,14,-1
 256 640 l 1,4,-1
EndSplineSet
Validated: 521
EndChar

StartChar: j minuscule
Encoding: 106 106 110
Width: 1024
GlyphClass: 2
Flags: W
LayerCount: 2
Fore
SplineSet
512 896 m 1,0,-1
 512 768 l 1,1,-1
 640 768 l 1,2,-1
 640 896 l 1,3,-1
 512 896 l 1,0,-1
384 640 m 1,4,-1
 384 512 l 1,5,-1
 512 512 l 1,6,-1
 512 -128 l 1,7,-1
 640 -128 l 1,8,-1
 640 512 l 1,9,-1
 640 640 l 1,10,-1
 384 640 l 1,4,-1
512 -128 m 1,11,-1
 256 -128 l 1,12,-1
 256 -256 l 1,13,-1
 512 -256 l 1,14,-1
 512 -128 l 1,11,-1
256 -128 m 1,15,-1
 256 0 l 1,16,-1
 128 0 l 1,17,-1
 128 -128 l 1,18,-1
 256 -128 l 1,15,-1
EndSplineSet
Validated: 517
EndChar

StartChar: k minuscule
Encoding: 107 107 111
Width: 1024
GlyphClass: 2
Flags: W
LayerCount: 2
Fore
SplineSet
256 896 m 1,0,-1
 256 0 l 1,1,-1
 384 0 l 1,2,-1
 384 256 l 1,3,-1
 512 256 l 1,4,-1
 512 384 l 1,5,-1
 384 384 l 1,6,-1
 384 896 l 1,7,-1
 256 896 l 1,0,-1
512 384 m 1,8,-1
 640 384 l 1,9,-1
 640 512 l 1,10,-1
 512 512 l 1,11,-1
 512 384 l 1,8,-1
640 512 m 1,12,-1
 768 512 l 1,13,-1
 768 640 l 1,14,-1
 640 640 l 1,15,-1
 640 512 l 1,12,-1
512 256 m 1,16,-1
 512 128 l 1,17,-1
 640 128 l 1,18,-1
 640 256 l 1,19,-1
 512 256 l 1,16,-1
640 128 m 1,20,-1
 640 0 l 1,21,-1
 768 0 l 1,22,-1
 768 128 l 1,23,-1
 640 128 l 1,20,-1
EndSplineSet
Validated: 517
EndChar

StartChar: l minuscule
Encoding: 108 108 112
Width: 1024
GlyphClass: 2
Flags: W
LayerCount: 2
Fore
SplineSet
256 896 m 1,0,-1
 256 768 l 1,1,-1
 384 768 l 1,2,-1
 384 128 l 1,3,-1
 256 128 l 1,4,-1
 256 0 l 1,5,-1
 640 0 l 1,6,-1
 640 128 l 1,7,-1
 512 128 l 1,8,-1
 512 768 l 1,9,-1
 512 896 l 1,10,-1
 256 896 l 1,0,-1
EndSplineSet
Validated: 521
EndChar

StartChar: m minuscule
Encoding: 109 109 113
Width: 1024
GlyphClass: 2
Flags: W
LayerCount: 2
Fore
SplineSet
128 640 m 1,0,-1
 128 0 l 1,1,-1
 256 0 l 1,2,-1
 256 512 l 1,3,-1
 384 512 l 1,4,-1
 384 640 l 1,5,-1
 256 640 l 1,6,-1
 128 640 l 1,0,-1
384 512 m 1,7,-1
 384 0 l 1,8,-1
 512 0 l 1,9,-1
 512 512 l 1,10,-1
 384 512 l 1,7,-1
512 512 m 1,11,-1
 640 512 l 1,12,-1
 640 640 l 1,13,-1
 512 640 l 1,14,-1
 512 512 l 1,11,-1
640 512 m 1,15,-1
 640 0 l 1,16,-1
 768 0 l 1,17,-1
 768 512 l 1,18,-1
 640 512 l 1,15,-1
EndSplineSet
Validated: 517
EndChar

StartChar: n minuscule
Encoding: 110 110 114
Width: 1024
GlyphClass: 2
Flags: W
LayerCount: 2
Fore
SplineSet
128 640 m 1,0,-1
 128 0 l 1,1,-1
 256 0 l 1,2,-1
 256 384 l 1,3,-1
 384 384 l 1,4,-1
 384 512 l 1,5,-1
 256 512 l 1,6,-1
 256 640 l 1,7,-1
 128 640 l 1,0,-1
384 512 m 1,8,-1
 640 512 l 1,9,-1
 640 640 l 1,10,-1
 384 640 l 1,11,-1
 384 512 l 1,8,-1
640 512 m 1,12,-1
 640 0 l 1,13,-1
 768 0 l 1,14,-1
 768 512 l 1,15,-1
 640 512 l 1,12,-1
EndSplineSet
Validated: 517
EndChar

StartChar: o minuscule
Encoding: 111 111 115
Width: 1024
GlyphClass: 2
Flags: W
LayerCount: 2
Fore
SplineSet
256 640 m 1,0,-1
 256 512 l 1,1,-1
 640 512 l 1,2,-1
 640 640 l 1,3,-1
 256 640 l 1,0,-1
640 512 m 1,4,-1
 640 128 l 1,5,-1
 768 128 l 1,6,-1
 768 512 l 1,7,-1
 640 512 l 1,4,-1
640 128 m 1,8,-1
 256 128 l 1,9,-1
 256 0 l 1,10,-1
 640 0 l 1,11,-1
 640 128 l 1,8,-1
256 128 m 1,12,-1
 256 512 l 1,13,-1
 128 512 l 1,14,-1
 128 128 l 1,15,-1
 256 128 l 1,12,-1
EndSplineSet
Validated: 517
EndChar

StartChar: p minuscule
Encoding: 112 112 116
Width: 1024
GlyphClass: 2
Flags: W
LayerCount: 2
Fore
SplineSet
128 640 m 1,0,-1
 128 -256 l 1,1,-1
 256 -256 l 1,2,-1
 256 128 l 1,3,-1
 640 128 l 1,4,-1
 768 128 l 1,5,-1
 768 512 l 1,6,-1
 640 512 l 1,7,-1
 640 256 l 1,8,-1
 256 256 l 1,9,-1
 256 512 l 1,10,-1
 640 512 l 1,11,-1
 640 640 l 1,12,-1
 256 640 l 1,13,-1
 128 640 l 1,0,-1
EndSplineSet
Validated: 517
EndChar

StartChar: q minuscule
Encoding: 113 113 117
Width: 1024
GlyphClass: 2
Flags: W
LayerCount: 2
Fore
SplineSet
256 640 m 1,0,-1
 256 512 l 1,1,-1
 640 512 l 1,2,-1
 640 128 l 1,3,-1
 256 128 l 1,4,-1
 256 0 l 1,5,-1
 640 0 l 1,6,-1
 640 -256 l 1,7,-1
 768 -256 l 1,8,-1
 768 640 l 1,9,-1
 640 640 l 1,10,-1
 256 640 l 1,0,-1
256 128 m 1,11,-1
 256 512 l 1,12,-1
 128 512 l 1,13,-1
 128 128 l 1,14,-1
 256 128 l 1,11,-1
EndSplineSet
Validated: 517
EndChar

StartChar: r minuscule
Encoding: 114 114 118
Width: 1024
GlyphClass: 2
Flags: W
LayerCount: 2
Fore
SplineSet
128 640 m 1,0,-1
 128 0 l 1,1,-1
 256 0 l 1,2,-1
 256 384 l 1,3,-1
 384 384 l 1,4,-1
 384 512 l 1,5,-1
 256 512 l 1,6,-1
 256 640 l 1,7,-1
 128 640 l 1,0,-1
384 512 m 1,8,-1
 640 512 l 1,9,-1
 640 640 l 1,10,-1
 384 640 l 1,11,-1
 384 512 l 1,8,-1
640 512 m 1,12,-1
 640 384 l 1,13,-1
 768 384 l 1,14,-1
 768 512 l 1,15,-1
 640 512 l 1,12,-1
EndSplineSet
Validated: 517
EndChar

StartChar: s minuscule
Encoding: 115 115 119
Width: 1024
GlyphClass: 2
Flags: W
LayerCount: 2
Fore
SplineSet
256 640 m 1,0,-1
 256 512 l 1,1,-1
 640 512 l 1,2,-1
 640 640 l 1,3,-1
 256 640 l 1,0,-1
256 512 m 1,4,-1
 128 512 l 1,5,-1
 128 384 l 1,6,-1
 256 384 l 1,7,-1
 256 512 l 1,4,-1
256 384 m 1,8,-1
 256 256 l 1,9,-1
 640 256 l 1,10,-1
 640 384 l 1,11,-1
 256 384 l 1,8,-1
640 256 m 1,12,-1
 640 128 l 1,13,-1
 768 128 l 1,14,-1
 768 256 l 1,15,-1
 640 256 l 1,12,-1
640 128 m 1,16,-1
 128 128 l 1,17,-1
 128 0 l 1,18,-1
 640 0 l 1,19,-1
 640 128 l 1,16,-1
EndSplineSet
Validated: 517
EndChar

StartChar: t minuscule
Encoding: 116 116 120
Width: 1024
GlyphClass: 2
Flags: W
LayerCount: 2
Fore
SplineSet
256 896 m 1,0,-1
 256 128 l 1,1,-1
 384 128 l 1,2,-1
 384 512 l 1,3,-1
 640 512 l 1,4,-1
 640 640 l 1,5,-1
 384 640 l 1,6,-1
 384 896 l 1,7,-1
 256 896 l 1,0,-1
384 128 m 1,8,-1
 384 0 l 1,9,-1
 640 0 l 1,10,-1
 640 128 l 1,11,-1
 384 128 l 1,8,-1
EndSplineSet
Validated: 517
EndChar

StartChar: u minuscule
Encoding: 117 117 121
Width: 1024
GlyphClass: 2
Flags: W
LayerCount: 2
Fore
SplineSet
128 640 m 1,0,-1
 128 128 l 1,1,-1
 256 128 l 1,2,-1
 256 640 l 1,3,-1
 128 640 l 1,0,-1
256 128 m 1,4,-1
 256 0 l 1,5,-1
 512 0 l 1,6,-1
 512 128 l 1,7,-1
 256 128 l 1,4,-1
512 128 m 1,8,-1
 640 128 l 1,9,-1
 640 0 l 1,10,-1
 768 0 l 1,11,-1
 768 640 l 1,12,-1
 640 640 l 1,13,-1
 640 256 l 1,14,-1
 512 256 l 1,15,-1
 512 128 l 1,8,-1
EndSplineSet
Validated: 517
EndChar

StartChar: v minuscule
Encoding: 118 118 122
Width: 1024
GlyphClass: 2
Flags: W
LayerCount: 2
Fore
SplineSet
128 640 m 1,0,-1
 128 384 l 1,1,-1
 256 384 l 1,2,-1
 256 640 l 1,3,-1
 128 640 l 1,0,-1
256 384 m 1,4,-1
 256 128 l 1,5,-1
 384 128 l 1,6,-1
 384 384 l 1,7,-1
 256 384 l 1,4,-1
384 128 m 1,8,-1
 384 0 l 1,9,-1
 512 0 l 1,10,-1
 512 128 l 1,11,-1
 384 128 l 1,8,-1
512 128 m 1,12,-1
 640 128 l 1,13,-1
 640 384 l 1,14,-1
 512 384 l 1,15,-1
 512 128 l 1,12,-1
640 384 m 1,16,-1
 768 384 l 1,17,-1
 768 640 l 1,18,-1
 640 640 l 1,19,-1
 640 384 l 1,16,-1
EndSplineSet
Validated: 517
EndChar

StartChar: w minuscule
Encoding: 119 119 123
Width: 1024
GlyphClass: 2
Flags: W
LayerCount: 2
Fore
SplineSet
128 640 m 1,0,-1
 128 128 l 1,1,-1
 256 128 l 1,2,-1
 256 640 l 1,3,-1
 128 640 l 1,0,-1
256 128 m 1,4,-1
 256 0 l 1,5,-1
 384 0 l 1,6,-1
 384 128 l 1,7,-1
 256 128 l 1,4,-1
384 128 m 1,8,-1
 512 128 l 1,9,-1
 512 384 l 1,10,-1
 384 384 l 1,11,-1
 384 128 l 1,8,-1
512 128 m 1,12,-1
 512 0 l 1,13,-1
 640 0 l 1,14,-1
 640 128 l 1,15,-1
 512 128 l 1,12,-1
640 128 m 1,16,-1
 768 128 l 1,17,-1
 768 640 l 1,18,-1
 640 640 l 1,19,-1
 640 128 l 1,16,-1
EndSplineSet
Validated: 517
EndChar

StartChar: x minuscule
Encoding: 120 120 124
Width: 1024
GlyphClass: 2
Flags: W
LayerCount: 2
Fore
SplineSet
128 640 m 1,0,-1
 128 512 l 1,1,-1
 256 512 l 1,2,-1
 256 640 l 1,3,-1
 128 640 l 1,0,-1
256 512 m 1,4,-1
 256 384 l 1,5,-1
 384 384 l 1,6,-1
 384 512 l 1,7,-1
 256 512 l 1,4,-1
384 384 m 1,8,-1
 384 256 l 1,9,-1
 512 256 l 1,10,-1
 512 384 l 1,11,-1
 384 384 l 1,8,-1
512 384 m 1,12,-1
 640 384 l 1,13,-1
 640 512 l 1,14,-1
 512 512 l 1,15,-1
 512 384 l 1,12,-1
640 512 m 1,16,-1
 768 512 l 1,17,-1
 768 640 l 1,18,-1
 640 640 l 1,19,-1
 640 512 l 1,16,-1
512 256 m 1,20,-1
 512 128 l 1,21,-1
 640 128 l 1,22,-1
 640 256 l 1,23,-1
 512 256 l 1,20,-1
640 128 m 1,24,-1
 640 0 l 1,25,-1
 768 0 l 1,26,-1
 768 128 l 1,27,-1
 640 128 l 1,24,-1
384 256 m 1,28,-1
 256 256 l 1,29,-1
 256 128 l 1,30,-1
 384 128 l 1,31,-1
 384 256 l 1,28,-1
256 128 m 1,32,-1
 128 128 l 1,33,-1
 128 0 l 1,34,-1
 256 0 l 1,35,-1
 256 128 l 1,32,-1
EndSplineSet
Validated: 517
EndChar

StartChar: y minuscule
Encoding: 121 121 125
Width: 1024
GlyphClass: 2
Flags: W
LayerCount: 2
Fore
SplineSet
128 640 m 1,0,-1
 128 256 l 1,1,-1
 256 256 l 1,2,-1
 256 640 l 1,3,-1
 128 640 l 1,0,-1
256 256 m 1,4,-1
 256 128 l 1,5,-1
 512 128 l 1,6,-1
 512 256 l 1,7,-1
 256 256 l 1,4,-1
512 256 m 1,8,-1
 640 256 l 1,9,-1
 640 -128 l 1,10,-1
 768 -128 l 1,11,-1
 768 640 l 1,12,-1
 640 640 l 1,13,-1
 640 384 l 1,14,-1
 512 384 l 1,15,-1
 512 256 l 1,8,-1
640 -128 m 1,16,-1
 256 -128 l 1,17,-1
 256 -256 l 1,18,-1
 640 -256 l 1,19,-1
 640 -128 l 1,16,-1
256 -128 m 1,20,-1
 256 0 l 1,21,-1
 128 0 l 1,22,-1
 128 -128 l 1,23,-1
 256 -128 l 1,20,-1
EndSplineSet
Validated: 517
EndChar

StartChar: z minuscule
Encoding: 122 122 126
Width: 1024
GlyphClass: 2
Flags: W
LayerCount: 2
Fore
SplineSet
128 640 m 1,0,-1
 128 512 l 1,1,-1
 512 512 l 1,2,-1
 512 384 l 1,3,-1
 640 384 l 1,4,-1
 640 512 l 1,5,-1
 768 512 l 1,6,-1
 768 640 l 1,7,-1
 128 640 l 1,0,-1
512 384 m 1,8,-1
 384 384 l 1,9,-1
 384 256 l 1,10,-1
 512 256 l 1,11,-1
 512 384 l 1,8,-1
384 256 m 1,12,-1
 256 256 l 1,13,-1
 256 128 l 1,14,-1
 128 128 l 1,15,-1
 128 0 l 1,16,-1
 768 0 l 1,17,-1
 768 128 l 1,18,-1
 384 128 l 1,19,-1
 384 256 l 1,12,-1
EndSplineSet
Validated: 517
EndChar

StartChar: barre gauche
Encoding: 65538 -1 127
Width: 1024
GlyphClass: 2
Flags: W
LayerCount: 2
Fore
SplineSet
0 1024 m 1,0,-1
 0 -256 l 1,1,-1
 128 -256 l 1,2,-1
 128 1024 l 1,3,-1
 0 1024 l 1,0,-1
EndSplineSet
Validated: 521
EndChar

StartChar: barre centrale
Encoding: 124 124 128
Width: 1024
GlyphClass: 2
Flags: W
LayerCount: 2
Fore
SplineSet
384 1024 m 1,0,-1
 384 -256 l 1,1,-1
 512 -256 l 1,2,-1
 512 1024 l 1,3,-1
 384 1024 l 1,0,-1
EndSplineSet
Validated: 521
EndChar

StartChar: barre droite
Encoding: 65539 -1 129
Width: 1024
GlyphClass: 2
Flags: W
LayerCount: 2
Fore
SplineSet
896 1024 m 1,0,-1
 896 -256 l 1,1,-1
 1024 -256 l 1,2,-1
 1024 1024 l 1,3,-1
 896 1024 l 1,0,-1
EndSplineSet
Validated: 521
EndChar

